<svg width="66" height="48" viewBox="0 0 66 48" fill="none" xmlns="http://www.w3.org/2000/svg">
<path d="M32.875 33.5625L33.855 33.7613L33.8553 33.76L32.875 33.5625ZM30.0625 40.9062L29.2199 40.3677L29.216 40.3739L30.0625 40.9062ZM7.875 44.3438L7.26528 45.1364L7.26957 45.1396L7.875 44.3438ZM2.46875 36.3125L1.51836 36.6236L1.52064 36.6304L2.46875 36.3125ZM2.3125 11.0625L1.35514 10.7736L1.35405 10.7772L2.3125 11.0625ZM26.5938 2.96875L25.9807 3.75887L25.9883 3.76465L26.5938 2.96875ZM32 11.0312L31.0508 11.3458L31.0513 11.3475L32 11.0312ZM13.3438 31.2188L12.349 31.3213L12.3501 31.3314L13.3438 31.2188ZM14.5938 35.7812L13.7332 36.2906L13.7393 36.301L13.7458 36.3112L14.5938 35.7812ZM19.875 35.7812L20.731 36.2984L20.7356 36.2906L19.875 35.7812ZM21.125 31.25L22.1185 31.3638L22.1186 31.3627L21.125 31.25ZM19.875 11.5938L19.0099 12.0955L19.0144 12.1031L19.875 11.5938ZM14.5938 11.5938L13.7362 11.0792L13.7332 11.0844L14.5938 11.5938ZM13.3438 16.1562L12.3501 16.0436L12.349 16.0537L13.3438 16.1562ZM32.75 23.7188C32.75 27.3343 32.4622 30.5475 31.8947 33.365L33.8553 33.76C34.4544 30.7858 34.75 27.4366 34.75 23.7188H32.75ZM31.895 33.3637C31.3308 36.144 30.4323 38.471 29.2199 40.3677L30.9051 41.4448C32.2761 39.2999 33.2525 36.731 33.855 33.7613L31.895 33.3637ZM29.216 40.3739C28.0406 42.243 26.489 43.6591 24.5493 44.6386L25.4507 46.4239C27.7193 45.2784 29.5427 43.6112 30.909 41.4386L29.216 40.3739ZM24.5493 44.6386C22.6203 45.6126 20.2011 46.125 17.25 46.125V48.125C20.4239 48.125 23.1714 47.5749 25.4507 46.4239L24.5493 44.6386ZM17.25 46.125C13.6017 46.125 10.705 45.24 8.48043 43.5479L7.26957 45.1396C9.92004 47.1558 13.2733 48.125 17.25 48.125V46.125ZM8.48471 43.5511C6.233 41.819 4.5328 39.3224 3.41686 35.9946L1.52064 36.6304C2.73804 40.2609 4.642 43.1185 7.26529 45.1364L8.48471 43.5511ZM3.41912 36.0014C2.31497 32.6287 1.75 28.5415 1.75 23.7188H-0.25C-0.25 28.6877 0.330865 32.9963 1.51838 36.6236L3.41912 36.0014ZM1.75 23.7188C1.75 18.8463 2.26459 14.7291 3.27095 11.3478L1.35405 10.7772C0.277077 14.3959 -0.25 18.7162 -0.25 23.7188H1.75ZM3.26986 11.3514C4.28477 7.98825 5.92253 5.48258 8.14425 3.75883L6.91825 2.17867C4.30664 4.20492 2.46523 7.09508 1.35514 10.7736L3.26986 11.3514ZM8.14425 3.75883C10.3356 2.05862 13.3367 1.15625 17.25 1.15625V-0.84375C13.0383 -0.84375 9.56019 0.128883 6.91825 2.17867L8.14425 3.75883ZM17.25 1.15625C20.8963 1.15625 23.779 2.05055 25.9808 3.75883L27.2067 2.17867C24.5752 0.136948 21.2287 -0.84375 17.25 -0.84375V1.15625ZM25.9883 3.76465C28.234 5.47293 29.9339 7.9754 31.0508 11.3458L32.9492 10.7167C31.7327 7.04544 29.8285 4.1729 27.1992 2.17285L25.9883 3.76465ZM31.0513 11.3475C32.1746 14.7172 32.75 18.8334 32.75 23.7188H34.75C34.75 18.6875 34.1588 14.3453 32.9487 10.715L31.0513 11.3475ZM12.0312 23.7188C12.0312 26.718 12.136 29.2547 12.349 31.3213L14.3385 31.1162C14.1349 29.1411 14.0312 26.6779 14.0312 23.7188H12.0312ZM12.3501 31.3314C12.5854 33.4062 13.0233 35.0911 13.7332 36.2906L15.4543 35.2719C14.9559 34.4297 14.5604 33.073 14.3374 31.1061L12.3501 31.3314ZM13.7458 36.3112C14.547 37.5933 15.7473 38.2812 17.25 38.2812V36.2812C16.461 36.2812 15.8905 35.9692 15.4417 35.2513L13.7458 36.3112ZM17.25 38.2812C18.7544 38.2812 19.95 37.5909 20.7309 36.2984L19.0191 35.2641C18.5916 35.9716 18.0373 36.2812 17.25 36.2812V38.2812ZM20.7356 36.2906C21.4447 35.0925 21.883 33.4194 22.1185 31.3638L20.1315 31.1362C19.9087 33.0806 19.5137 34.4284 19.0144 35.2719L20.7356 36.2906ZM22.1186 31.3627C22.3535 29.2914 22.4688 26.7405 22.4688 23.7188H20.4688C20.4688 26.697 20.3548 29.1669 20.1314 31.1373L22.1186 31.3627ZM22.4688 23.7188C22.4688 20.6764 22.3535 18.115 22.1186 16.0436L20.1314 16.2689C20.3548 18.2391 20.4688 20.7194 20.4688 23.7188H22.4688ZM22.1186 16.0436C21.8833 13.9688 21.4455 12.2839 20.7356 11.0844L19.0144 12.1031C19.5129 12.9453 19.9083 14.302 20.1314 16.2689L22.1186 16.0436ZM20.74 11.092C19.9682 9.76121 18.7741 9.03125 17.25 9.03125V11.0312C18.0175 11.0312 18.5735 11.343 19.01 12.0955L20.74 11.092ZM17.25 9.03125C15.7279 9.03125 14.5288 9.75842 13.7363 11.0793L15.4512 12.1082C15.9087 11.3457 16.4804 11.0312 17.25 11.0312V9.03125ZM13.7332 11.0844C13.0233 12.2839 12.5854 13.9688 12.3501 16.0436L14.3374 16.2689C14.5604 14.302 14.9559 12.9453 15.4543 12.1031L13.7332 11.0844ZM12.349 16.0537C12.1359 18.1207 12.0312 20.6784 12.0312 23.7188H14.0312C14.0312 20.7174 14.1349 18.2335 14.3385 16.2588L12.349 16.0537ZM65.4375 46.5V47.5H66.4375V46.5H65.4375ZM52.9062 46.5H51.9062V47.5H52.9062V46.5ZM52.9375 17.9062L51.938 17.8755L51.9377 17.8832L51.9376 17.8909L52.9375 17.9062ZM53.0938 14.25L54.0921 14.3076L54.2658 11.2964L52.3276 13.6074L53.0938 14.25ZM51.5625 15.9062L50.8713 15.1836L50.8633 15.1913L50.8554 15.1991L51.5625 15.9062ZM50.2188 17.1875L50.8553 17.9588L50.8728 17.9443L50.8897 17.929L50.2188 17.1875ZM45.0312 21.4688L44.2555 22.0998L44.891 22.881L45.6678 22.24L45.0312 21.4688ZM38.625 13.5938L37.9934 12.8185L37.2187 13.4496L37.8493 14.2248L38.625 13.5938ZM54.3125 0.8125V-0.1875H53.9567L53.6809 0.0372372L54.3125 0.8125ZM65.4375 0.8125H66.4375V-0.1875H65.4375V0.8125ZM65.4375 45.5H52.9062V47.5H65.4375V45.5ZM53.9062 46.5V23.9062H51.9062V46.5H53.9062ZM53.9062 23.9062C53.9062 23.9054 53.9062 23.9046 53.9062 23.9038C53.9062 23.903 53.9062 23.9022 53.9062 23.9014C53.9062 23.9005 53.9062 23.8997 53.9062 23.8989C53.9062 23.8981 53.9062 23.8972 53.9062 23.8964C53.9062 23.8956 53.9062 23.8948 53.9062 23.8939C53.9062 23.8931 53.9062 23.8923 53.9062 23.8915C53.9062 23.8906 53.9062 23.8898 53.9062 23.889C53.9062 23.8881 53.9062 23.8873 53.9062 23.8865C53.9062 23.8856 53.9062 23.8848 53.9062 23.884C53.9062 23.8831 53.9062 23.8823 53.9062 23.8814C53.9062 23.8806 53.9062 23.8798 53.9062 23.8789C53.9062 23.8781 53.9062 23.8772 53.9062 23.8764C53.9062 23.8755 53.9062 23.8747 53.9062 23.8738C53.9062 23.873 53.9062 23.8722 53.9062 23.8713C53.9062 23.8704 53.9062 23.8696 53.9062 23.8687C53.9062 23.8679 53.9062 23.867 53.9062 23.8662C53.9062 23.8653 53.9062 23.8645 53.9062 23.8636C53.9062 23.8628 53.9062 23.8619 53.9062 23.861C53.9062 23.8602 53.9062 23.8593 53.9062 23.8584C53.9062 23.8576 53.9062 23.8567 53.9062 23.8559C53.9062 23.855 53.9062 23.8541 53.9062 23.8532C53.9062 23.8524 53.9062 23.8515 53.9062 23.8506C53.9062 23.8498 53.9062 23.8489 53.9062 23.848C53.9062 23.8471 53.9062 23.8463 53.9062 23.8454C53.9062 23.8445 53.9062 23.8436 53.9062 23.8428C53.9062 23.8419 53.9062 23.841 53.9062 23.8401C53.9062 23.8392 53.9062 23.8383 53.9062 23.8375C53.9062 23.8366 53.9062 23.8357 53.9062 23.8348C53.9062 23.8339 53.9062 23.833 53.9062 23.8321C53.9062 23.8312 53.9062 23.8304 53.9062 23.8295C53.9062 23.8286 53.9062 23.8277 53.9062 23.8268C53.9062 23.8259 53.9062 23.825 53.9062 23.8241C53.9062 23.8232 53.9062 23.8223 53.9062 23.8214C53.9062 23.8205 53.9062 23.8196 53.9062 23.8187C53.9062 23.8178 53.9062 23.8169 53.9062 23.816C53.9062 23.8151 53.9062 23.8142 53.9062 23.8133C53.9062 23.8124 53.9062 23.8114 53.9062 23.8105C53.9062 23.8096 53.9062 23.8087 53.9062 23.8078C53.9062 23.8069 53.9062 23.806 53.9062 23.805C53.9062 23.8041 53.9062 23.8032 53.9062 23.8023C53.9062 23.8014 53.9062 23.8005 53.9062 23.7995C53.9062 23.7986 53.9062 23.7977 53.9062 23.7968C53.9062 23.7958 53.9062 23.7949 53.9062 23.794C53.9062 23.7931 53.9062 23.7921 53.9062 23.7912C53.9062 23.7903 53.9062 23.7894 53.9062 23.7884C53.9062 23.7875 53.9062 23.7866 53.9062 23.7856C53.9062 23.7847 53.9062 23.7838 53.9062 23.7828C53.9062 23.7819 53.9062 23.7809 53.9062 23.78C53.9062 23.7791 53.9062 23.7781 53.9062 23.7772C53.9062 23.7762 53.9062 23.7753 53.9062 23.7743C53.9062 23.7734 53.9062 23.7725 53.9062 23.7715C53.9062 23.7706 53.9062 23.7696 53.9062 23.7687C53.9062 23.7677 53.9062 23.7668 53.9062 23.7658C53.9062 23.7649 53.9062 23.7639 53.9062 23.7629C53.9062 23.762 53.9062 23.761 53.9062 23.7601C53.9062 23.7591 53.9062 23.7582 53.9062 23.7572C53.9062 23.7562 53.9062 23.7553 53.9062 23.7543C53.9062 23.7533 53.9062 23.7524 53.9062 23.7514C53.9062 23.7505 53.9062 23.7495 53.9062 23.7485C53.9062 23.7475 53.9062 23.7466 53.9062 23.7456C53.9062 23.7446 53.9062 23.7437 53.9062 23.7427C53.9062 23.7417 53.9062 23.7407 53.9062 23.7398C53.9062 23.7388 53.9062 23.7378 53.9062 23.7368C53.9062 23.7358 53.9062 23.7349 53.9062 23.7339C53.9062 23.7329 53.9062 23.7319 53.9062 23.7309C53.9062 23.73 53.9062 23.729 53.9062 23.728C53.9062 23.727 53.9062 23.726 53.9062 23.725C53.9062 23.724 53.9062 23.723 53.9062 23.722C53.9062 23.7211 53.9062 23.7201 53.9062 23.7191C53.9062 23.7181 53.9062 23.7171 53.9062 23.7161C53.9062 23.7151 53.9062 23.7141 53.9062 23.7131C53.9062 23.7121 53.9062 23.7111 53.9062 23.7101C53.9062 23.7091 53.9062 23.7081 53.9062 23.7071C53.9062 23.7061 53.9062 23.7051 53.9062 23.704C53.9062 23.703 53.9062 23.702 53.9062 23.701C53.9062 23.7 53.9062 23.699 53.9062 23.698C53.9062 23.697 53.9062 23.696 53.9062 23.6949C53.9062 23.6939 53.9062 23.6929 53.9062 23.6919C53.9062 23.6909 53.9062 23.6898 53.9062 23.6888C53.9062 23.6878 53.9062 23.6868 53.9062 23.6858C53.9062 23.6847 53.9062 23.6837 53.9062 23.6827C53.9062 23.6817 53.9062 23.6806 53.9062 23.6796C53.9062 23.6786 53.9062 23.6775 53.9062 23.6765C53.9062 23.6755 53.9062 23.6744 53.9062 23.6734C53.9062 23.6724 53.9062 23.6713 53.9062 23.6703C53.9062 23.6693 53.9062 23.6682 53.9062 23.6672C53.9062 23.6662 53.9062 23.6651 53.9062 23.6641C53.9062 23.663 53.9062 23.662 53.9062 23.6609C53.9062 23.6599 53.9062 23.6589 53.9062 23.6578C53.9062 23.6568 53.9062 23.6557 53.9062 23.6547C53.9062 23.6536 53.9062 23.6526 53.9062 23.6515C53.9062 23.6505 53.9062 23.6494 53.9062 23.6483C53.9062 23.6473 53.9062 23.6462 53.9062 23.6452C53.9062 23.6441 53.9062 23.6431 53.9062 23.642C53.9062 23.6409 53.9062 23.6399 53.9062 23.6388C53.9062 23.6377 53.9062 23.6367 53.9062 23.6356C53.9062 23.6346 53.9062 23.6335 53.9062 23.6324C53.9062 23.6314 53.9062 23.6303 53.9062 23.6292C53.9062 23.6281 53.9062 23.6271 53.9062 23.626C53.9062 23.6249 53.9062 23.6238 53.9062 23.6228C53.9062 23.6217 53.9062 23.6206 53.9062 23.6195C53.9062 23.6185 53.9062 23.6174 53.9062 23.6163C53.9062 23.6152 53.9062 23.6141 53.9062 23.613C53.9062 23.612 53.9062 23.6109 53.9062 23.6098C53.9062 23.6087 53.9062 23.6076 53.9062 23.6065C53.9062 23.6054 53.9062 23.6044 53.9062 23.6033C53.9062 23.6022 53.9062 23.6011 53.9062 23.6C53.9062 23.5989 53.9062 23.5978 53.9062 23.5967C53.9062 23.5956 53.9062 23.5945 53.9062 23.5934C53.9062 23.5923 53.9062 23.5912 53.9062 23.5901C53.9062 23.589 53.9062 23.5879 53.9062 23.5868C53.9062 23.5857 53.9062 23.5846 53.9062 23.5835C53.9062 23.5824 53.9062 23.5812 53.9062 23.5801C53.9062 23.579 53.9062 23.5779 53.9062 23.5768C53.9062 23.5757 53.9062 23.5746 53.9062 23.5735C53.9062 23.5723 53.9062 23.5712 53.9062 23.5701C53.9062 23.569 53.9062 23.5679 53.9062 23.5668C53.9062 23.5656 53.9062 23.5645 53.9062 23.5634C53.9062 23.5623 53.9062 23.5611 53.9062 23.56C53.9062 23.5589 53.9062 23.5578 53.9062 23.5566C53.9062 23.5555 53.9062 23.5544 53.9062 23.5532C53.9062 23.5521 53.9062 23.551 53.9062 23.5498C53.9062 23.5487 53.9062 23.5476 53.9062 23.5464C53.9062 23.5453 53.9062 23.5442 53.9062 23.543C53.9062 23.5419 53.9062 23.5407 53.9062 23.5396C53.9062 23.5385 53.9062 23.5373 53.9062 23.5362C53.9062 23.535 53.9062 23.5339 53.9062 23.5327C53.9062 23.5316 53.9062 23.5304 53.9062 23.5293C53.9062 23.5281 53.9062 23.527 53.9062 23.5258C53.9062 23.5247 53.9062 23.5235 53.9062 23.5224C53.9062 23.5212 53.9062 23.5201 53.9062 23.5189C53.9062 23.5178 53.9062 23.5166 53.9062 23.5154C53.9062 23.5143 53.9062 23.5131 53.9062 23.512C53.9062 23.5108 53.9062 23.5096 53.9062 23.5085C53.9062 23.5073 53.9062 23.5061 53.9062 23.505C53.9062 23.5038 53.9062 23.5026 53.9062 23.5015C53.9062 23.5003 53.9062 23.4991 53.9062 23.4979C53.9062 23.4968 53.9062 23.4956 53.9062 23.4944C53.9062 23.4932 53.9062 23.4921 53.9062 23.4909C53.9062 23.4897 53.9062 23.4885 53.9062 23.4874C53.9062 23.4862 53.9062 23.485 53.9062 23.4838C53.9062 23.4826 53.9062 23.4814 53.9062 23.4802C53.9062 23.4791 53.9062 23.4779 53.9062 23.4767C53.9062 23.4755 53.9062 23.4743 53.9062 23.4731C53.9062 23.4719 53.9062 23.4707 53.9062 23.4695C53.9062 23.4683 53.9062 23.4671 53.9062 23.466C53.9062 23.4648 53.9062 23.4636 53.9062 23.4624C53.9062 23.4612 53.9062 23.46 53.9062 23.4588C53.9062 23.4576 53.9062 23.4563 53.9062 23.4551C53.9062 23.4539 53.9062 23.4527 53.9062 23.4515C53.9062 23.4503 53.9062 23.4491 53.9062 23.4479C53.9062 23.4467 53.9062 23.4455 53.9062 23.4443C53.9062 23.4431 53.9062 23.4418 53.9062 23.4406C53.9062 23.4394 53.9062 23.4382 53.9062 23.437C53.9062 23.4358 53.9062 23.4345 53.9062 23.4333C53.9062 23.4321 53.9062 23.4309 53.9062 23.4297C53.9062 23.4284 53.9062 23.4272 53.9062 23.426C53.9062 23.4248 53.9062 23.4235 53.9062 23.4223C53.9062 23.4211 53.9062 23.4198 53.9062 23.4186C53.9062 23.4174 53.9062 23.4161 53.9062 23.4149C53.9062 23.4137 53.9062 23.4124 53.9062 23.4112C53.9062 23.41 53.9062 23.4087 53.9062 23.4075C53.9062 23.4063 53.9062 23.405 53.9062 23.4038C53.9062 23.4025 53.9062 23.4013 53.9062 23.4001C53.9062 23.3988 53.9062 23.3976 53.9062 23.3963C53.9062 23.3951 53.9062 23.3938 53.9062 23.3926C53.9062 23.3913 53.9062 23.3901 53.9062 23.3888C53.9062 23.3876 53.9062 23.3863 53.9062 23.3851C53.9062 23.3838 53.9062 23.3826 53.9062 23.3813C53.9062 23.38 53.9062 23.3788 53.9062 23.3775C53.9062 23.3763 53.9062 23.375 53.9062 23.3737C53.9062 23.3725 53.9062 23.3712 53.9062 23.3699C53.9062 23.3687 53.9062 23.3674 53.9062 23.3661C53.9062 23.3649 53.9062 23.3636 53.9062 23.3623C53.9062 23.3611 53.9062 23.3598 53.9062 23.3585C53.9062 23.3573 53.9062 23.356 53.9062 23.3547C53.9062 23.3534 53.9062 23.3522 53.9062 23.3509C53.9062 23.3496 53.9062 23.3483 53.9062 23.347C53.9062 23.3458 53.9062 23.3445 53.9062 23.3432C53.9062 23.3419 53.9062 23.3406 53.9062 23.3393C53.9062 23.3381 53.9062 23.3368 53.9062 23.3355C53.9062 23.3342 53.9062 23.3329 53.9062 23.3316C53.9062 23.3303 53.9062 23.329 53.9062 23.3277C53.9062 23.3264 53.9062 23.3251 53.9062 23.3238C53.9062 23.3225 53.9062 23.3213 53.9062 23.32C53.9062 23.3187 53.9062 23.3174 53.9062 23.3161C53.9062 23.3148 53.9062 23.3134 53.9062 23.3121C53.9062 23.3108 53.9062 23.3095 53.9062 23.3082C53.9062 23.3069 53.9062 23.3056 53.9062 23.3043C53.9062 23.303 53.9062 23.3017 53.9062 23.3004C53.9062 23.2991 53.9062 23.2977 53.9062 23.2964C53.9062 23.2951 53.9062 23.2938 53.9062 23.2925C53.9062 23.2912 53.9062 23.2898 53.9062 23.2885C53.9062 23.2872 53.9062 23.2859 53.9062 23.2846C53.9062 23.2832 53.9062 23.2819 53.9062 23.2806C53.9062 23.2793 53.9062 23.2779 53.9062 23.2766C53.9062 23.2753 53.9062 23.274 53.9062 23.2726C53.9062 23.2713 53.9062 23.27 53.9062 23.2686C53.9062 23.2673 53.9062 23.266 53.9062 23.2646C53.9062 23.2633 53.9062 23.262 53.9062 23.2606C53.9062 23.2593 53.9062 23.2579 53.9062 23.2566C53.9062 23.2553 53.9062 23.2539 53.9062 23.2526C53.9062 23.2512 53.9062 23.2499 53.9062 23.2485C53.9062 23.2472 53.9062 23.2458 53.9062 23.2445C53.9062 23.2431 53.9062 23.2418 53.9062 23.2404C53.9062 23.2391 53.9062 23.2377 53.9062 23.2364C53.9062 23.235 53.9062 23.2337 53.9062 23.2323C53.9062 23.231 53.9062 23.2296 53.9062 23.2282C53.9062 23.2269 53.9062 23.2255 53.9062 23.2242C53.9062 23.2228 53.9062 23.2214 53.9062 23.2201C53.9062 23.2187 53.9062 23.2173 53.9062 23.216C53.9062 23.2146 53.9062 23.2132 53.9062 23.2119C53.9062 23.2105 53.9062 23.2091 53.9062 23.2078C53.9062 23.2064 53.9062 23.205 53.9062 23.2036C53.9062 23.2023 53.9062 23.2009 53.9062 23.1995C53.9062 23.1981 53.9062 23.1967 53.9062 23.1954C53.9062 23.194 53.9062 23.1926 53.9062 23.1912C53.9062 23.1898 53.9062 23.1885 53.9062 23.1871C53.9062 23.1857 53.9062 23.1843 53.9062 23.1829C53.9062 23.1815 53.9062 23.1801 53.9062 23.1787C53.9062 23.1773 53.9062 23.176 53.9062 23.1746C53.9062 23.1732 53.9062 23.1718 53.9062 23.1704C53.9062 23.169 53.9062 23.1676 53.9062 23.1662C53.9062 23.1648 53.9062 23.1634 53.9062 23.162C53.9062 23.1606 53.9062 23.1592 53.9062 23.1578C53.9062 23.1564 53.9062 23.155 53.9062 23.1536C53.9062 23.1522 53.9062 23.1507 53.9062 23.1493C53.9062 23.1479 53.9062 23.1465 53.9062 23.1451C53.9062 23.1437 53.9062 23.1423 53.9062 23.1409C53.9062 23.1395 53.9062 23.138 53.9062 23.1366C53.9062 23.1352 53.9062 23.1338 53.9062 23.1324C53.9062 23.1309 53.9062 23.1295 53.9062 23.1281C53.9062 23.1267 53.9062 23.1253 53.9062 23.1238C53.9062 23.1224 53.9062 23.121 53.9062 23.1196C53.9062 23.1181 53.9062 23.1167 53.9062 23.1153C53.9062 23.1138 53.9062 23.1124 53.9062 23.111C53.9062 23.1095 53.9062 23.1081 53.9062 23.1067C53.9062 23.1052 53.9062 23.1038 53.9062 23.1024C53.9062 23.1009 53.9062 23.0995 53.9062 23.098C53.9062 23.0966 53.9062 23.0952 53.9062 23.0937C53.9062 23.0923 53.9062 23.0908 53.9062 23.0894C53.9062 23.0879 53.9062 23.0865 53.9062 23.085C53.9062 23.0836 53.9062 23.0821 53.9062 23.0807C53.9062 23.0792 53.9062 23.0778 53.9062 23.0763C53.9062 23.0749 53.9062 23.0734 53.9062 23.072C53.9062 23.0705 53.9062 23.0691 53.9062 23.0676C53.9062 23.0661 53.9062 23.0647 53.9062 23.0632C53.9062 23.0618 53.9062 23.0603 53.9062 23.0588C53.9062 23.0574 53.9062 23.0559 53.9062 23.0544C53.9062 23.053 53.9062 23.0515 53.9062 23.05C53.9062 23.0486 53.9062 23.0471 53.9062 23.0456C53.9062 23.0441 53.9062 23.0427 53.9062 23.0412C53.9062 23.0397 53.9062 23.0382 53.9062 23.0368C53.9062 23.0353 53.9062 23.0338 53.9062 23.0323C53.9062 23.0309 53.9062 23.0294 53.9062 23.0279C53.9062 23.0264 53.9062 23.0249 53.9062 23.0234C53.9062 23.022 53.9062 23.0205 53.9062 23.019C53.9062 23.0175 53.9062 23.016 53.9062 23.0145C53.9062 23.013 53.9062 23.0115 53.9062 23.01C53.9062 23.0085 53.9062 23.007 53.9062 23.0056C53.9062 23.0041 53.9062 23.0026 53.9062 23.0011C53.9062 22.9996 53.9062 22.9981 53.9062 22.9966C53.9062 22.9951 53.9062 22.9936 53.9062 22.9921C53.9062 22.9906 53.9062 22.989 53.9062 22.9875C53.9062 22.986 53.9062 22.9845 53.9062 22.983C53.9062 22.9815 53.9062 22.98 53.9062 22.9785C53.9062 22.977 53.9062 22.9755 53.9062 22.9739C53.9062 22.9724 53.9062 22.9709 53.9062 22.9694C53.9062 22.9679 53.9062 22.9664 53.9062 22.9649C53.9062 22.9633 53.9062 22.9618 53.9062 22.9603C53.9062 22.9588 53.9062 22.9572 53.9062 22.9557C53.9062 22.9542 53.9062 22.9527 53.9062 22.9511C53.9062 22.9496 53.9062 22.9481 53.9062 22.9466C53.9062 22.945 53.9062 22.9435 53.9062 22.942C53.9062 22.9404 53.9062 22.9389 53.9062 22.9374C53.9062 22.9358 53.9062 22.9343 53.9062 22.9328C53.9062 22.9312 53.9062 22.9297 53.9062 22.9281C53.9062 22.9266 53.9062 22.9251 53.9062 22.9235C53.9062 22.922 53.9062 22.9204 53.9062 22.9189C53.9062 22.9173 53.9062 22.9158 53.9062 22.9142C53.9062 22.9127 53.9062 22.9111 53.9062 22.9096C53.9062 22.908 53.9062 22.9065 53.9062 22.9049C53.9062 22.9034 53.9062 22.9018 53.9062 22.9003C53.9062 22.8987 53.9062 22.8972 53.9062 22.8956C53.9062 22.894 53.9062 22.8925 53.9062 22.8909C53.9062 22.8894 53.9062 22.8878 53.9062 22.8862C53.9062 22.8847 53.9062 22.8831 53.9062 22.8815C53.9062 22.88 53.9062 22.8784 53.9062 22.8768C53.9062 22.8753 53.9062 22.8737 53.9062 22.8721C53.9062 22.8705 53.9062 22.869 53.9062 22.8674C53.9062 22.8658 53.9062 22.8643 53.9062 22.8627C53.9062 22.8611 53.9062 22.8595 53.9062 22.8579C53.9062 22.8564 53.9062 22.8548 53.9062 22.8532C53.9062 22.8516 53.9062 22.85 53.9062 22.8484C53.9062 22.8469 53.9062 22.8453 53.9062 22.8437C53.9062 22.8421 53.9062 22.8405 53.9062 22.8389C53.9062 22.8373 53.9062 22.8357 53.9062 22.8341C53.9062 22.8326 53.9062 22.831 53.9062 22.8294C53.9062 22.8278 53.9062 22.8262 53.9062 22.8246C53.9062 22.823 53.9062 22.8214 53.9062 22.8198C53.9062 22.8182 53.9062 22.8166 53.9062 22.815C53.9062 22.8134 53.9062 22.8118 53.9062 22.8102C53.9062 22.8086 53.9062 22.8069 53.9062 22.8053C53.9062 22.8037 53.9062 22.8021 53.9062 22.8005C53.9062 22.7989 53.9062 22.7973 53.9062 22.7957C53.9062 22.7941 53.9062 22.7924 53.9062 22.7908C53.9062 22.7892 53.9062 22.7876 53.9062 22.786C53.9062 22.7844 53.9062 22.7827 53.9062 22.7811C53.9062 22.7795 53.9062 22.7779 53.9062 22.7762C53.9062 22.7746 53.9062 22.773 53.9062 22.7714C53.9062 22.7697 53.9062 22.7681 53.9062 22.7665C53.9062 22.7649 53.9062 22.7632 53.9062 22.7616C53.9062 22.76 53.9062 22.7583 53.9062 22.7567C53.9062 22.7551 53.9062 22.7534 53.9062 22.7518C53.9062 22.7501 53.9062 22.7485 53.9062 22.7469C53.9062 22.7452 53.9062 22.7436 53.9062 22.7419C53.9062 22.7403 53.9062 22.7387 53.9062 22.737C53.9062 22.7354 53.9062 22.7337 53.9062 22.7321C53.9062 22.7304 53.9062 22.7288 53.9062 22.7271C53.9062 22.7255 53.9062 22.7238 53.9062 22.7222C53.9062 22.7205 53.9062 22.7189 53.9062 22.7172C53.9062 22.7155 53.9062 22.7139 53.9062 22.7122C53.9062 22.7106 53.9062 22.7089 53.9062 22.7073C53.9062 22.7056 53.9062 22.7039 53.9062 22.7023C53.9062 22.7006 53.9062 22.6989 53.9062 22.6973C53.9062 22.6956 53.9062 22.6939 53.9062 22.6923C53.9062 22.6906 53.9062 22.6889 53.9062 22.6873C53.9062 22.6856 53.9062 22.6839 53.9062 22.6822C53.9062 22.6806 53.9062 22.6789 53.9062 22.6772C53.9062 22.6755 53.9062 22.6739 53.9062 22.6722C53.9062 22.6705 53.9062 22.6688 53.9062 22.6671C53.9062 22.6655 53.9062 22.6638 53.9062 22.6621C53.9062 22.6604 53.9062 22.6587 53.9062 22.657C53.9062 22.6553 53.9062 22.6537 53.9062 22.652C53.9062 22.6503 53.9062 22.6486 53.9062 22.6469C53.9062 22.6452 53.9062 22.6435 53.9062 22.6418C53.9062 22.6401 53.9062 22.6384 53.9062 22.6367C53.9062 22.635 53.9062 22.6333 53.9062 22.6316C53.9062 22.6299 53.9062 22.6282 53.9062 22.6265C53.9062 22.6248 53.9062 22.6231 53.9062 22.6214C53.9062 22.6197 53.9062 22.618 53.9062 22.6163C53.9062 22.6146 53.9062 22.6129 53.9062 22.6112C53.9062 22.6095 53.9062 22.6077 53.9062 22.606C53.9062 22.6043 53.9062 22.6026 53.9062 22.6009C53.9062 22.5992 53.9062 22.5975 53.9062 22.5957C53.9062 22.594 53.9062 22.5923 53.9062 22.5906C53.9062 22.5889 53.9062 22.5871 53.9062 22.5854C53.9062 22.5837 53.9062 22.582 53.9062 22.5802C53.9062 22.5785 53.9062 22.5768 53.9062 22.575C53.9062 22.5733 53.9062 22.5716 53.9062 22.5699C53.9062 22.5681 53.9062 22.5664 53.9062 22.5647C53.9062 22.5629 53.9062 22.5612 53.9062 22.5594C53.9062 22.5577 53.9062 22.556 53.9062 22.5542C53.9062 22.5525 53.9062 22.5508 53.9062 22.549C53.9062 22.5473 53.9062 22.5455 53.9062 22.5438C53.9062 22.542 53.9062 22.5403 53.9062 22.5385C53.9062 22.5368 53.9062 22.535 53.9062 22.5333C53.9062 22.5315 53.9062 22.5298 53.9062 22.528C53.9062 22.5263 53.9062 22.5245 53.9062 22.5228C53.9062 22.521 53.9062 22.5193 53.9062 22.5175C53.9062 22.5158 53.9062 22.514 53.9062 22.5122C53.9062 22.5105 53.9062 22.5087 53.9062 22.5069C53.9062 22.5052 53.9062 22.5034 53.9062 22.5017C53.9062 22.4999 53.9062 22.4981 53.9062 22.4964C53.9062 22.4946 53.9062 22.4928 53.9062 22.491C53.9062 22.4893 53.9062 22.4875 53.9062 22.4857C53.9062 22.484 53.9062 22.4822 53.9062 22.4804C53.9062 22.4786 53.9062 22.4768 53.9062 22.4751C53.9062 22.4733 53.9062 22.4715 53.9062 22.4697C53.9062 22.4679 53.9062 22.4662 53.9062 22.4644C53.9062 22.4626 53.9062 22.4608 53.9062 22.459C53.9062 22.4572 53.9062 22.4554 53.9062 22.4537C53.9062 22.4519 53.9062 22.4501 53.9062 22.4483C53.9062 22.4465 53.9062 22.4447 53.9062 22.4429C53.9062 22.4411 53.9062 22.4393 53.9062 22.4375C53.9062 22.4357 53.9062 22.4339 53.9062 22.4321C53.9062 22.4303 53.9062 22.4285 53.9062 22.4267C53.9062 22.4249 53.9062 22.4231 53.9062 22.4213C53.9062 22.4195 53.9062 22.4177 53.9062 22.4159C53.9062 22.4141 53.9062 22.4123 53.9062 22.4105C53.9062 22.4086 53.9062 22.4068 53.9062 22.405C53.9062 22.4032 53.9062 22.4014 53.9062 22.3996C53.9062 22.3978 53.9062 22.396 53.9062 22.3941C53.9062 22.3923 53.9062 22.3905 53.9062 22.3887C53.9062 22.3869 53.9062 22.385 53.9062 22.3832C53.9062 22.3814 53.9062 22.3796 53.9062 22.3777C53.9062 22.3759 53.9062 22.3741 53.9062 22.3722C53.9062 22.3704 53.9062 22.3686 53.9062 22.3668C53.9062 22.3649 53.9062 22.3631 53.9062 22.3613C53.9062 22.3594 53.9062 22.3576 53.9062 22.3558C53.9062 22.3539 53.9062 22.3521 53.9062 22.3502C53.9062 22.3484 53.9062 22.3466 53.9062 22.3447C53.9062 22.3429 53.9062 22.341 53.9062 22.3392C53.9062 22.3373 53.9062 22.3355 53.9062 22.3337C53.9062 22.3318 53.9062 22.33 53.9062 22.3281C53.9062 22.3263 53.9062 22.3244 53.9062 22.3226C53.9062 22.3207 53.9062 22.3188 53.9062 22.317C53.9062 22.3151 53.9062 22.3133 53.9062 22.3114C53.9062 22.3096 53.9062 22.3077 53.9062 22.3058C53.9062 22.304 53.9062 22.3021 53.9062 22.3003C53.9062 22.2984 53.9062 22.2965 53.9062 22.2947C53.9062 22.2928 53.9062 22.2909 53.9062 22.2891C53.9062 22.2872 53.9062 22.2853 53.9062 22.2835C53.9062 22.2816 53.9062 22.2797 53.9062 22.2778C53.9062 22.276 53.9062 22.2741 53.9062 22.2722C53.9062 22.2703 53.9062 22.2685 53.9062 22.2666C53.9062 22.2647 53.9062 22.2628 53.9062 22.2609C53.9062 22.2591 53.9062 22.2572 53.9062 22.2553C53.9062 22.2534 53.9062 22.2515 53.9062 22.2496C53.9062 22.2478 53.9062 22.2459 53.9062 22.244C53.9062 22.2421 53.9062 22.2402 53.9062 22.2383C53.9062 22.2364 53.9062 22.2345 53.9062 22.2326C53.9062 22.2307 53.9062 22.2288 53.9062 22.2269C53.9062 22.225 53.9062 22.2232 53.9062 22.2213C53.9062 22.2194 53.9062 22.2175 53.9062 22.2155C53.9062 22.2136 53.9062 22.2117 53.9062 22.2098C53.9062 22.2079 53.9062 22.206 53.9062 22.2041C53.9062 22.2022 53.9062 22.2003 53.9062 22.1984C53.9062 22.1965 53.9062 22.1946 53.9062 22.1927C53.9062 22.1907 53.9062 22.1888 53.9062 22.1869C53.9062 22.185 53.9062 22.1831 53.9062 22.1812C53.9062 22.1792 53.9062 22.1773 53.9062 22.1754C53.9062 22.1735 53.9062 22.1716 53.9062 22.1696C53.9062 22.1677 53.9062 22.1658 53.9062 22.1639C53.9062 22.1619 53.9062 22.16 53.9062 22.1581C53.9062 22.1562 53.9062 22.1542 53.9062 22.1523C53.9062 22.1504 53.9062 22.1484 53.9062 22.1465C53.9062 22.1446 53.9062 22.1426 53.9062 22.1407C53.9062 22.1388 53.9062 22.1368 53.9062 22.1349C53.9062 22.1329 53.9062 22.131 53.9062 22.1291C53.9062 22.1271 53.9062 22.1252 53.9062 22.1232C53.9062 22.1213 53.9062 22.1193 53.9062 22.1174C53.9062 22.1155 53.9062 22.1135 53.9062 22.1116C53.9062 22.1096 53.9062 22.1077 53.9062 22.1057C53.9062 22.1038 53.9062 22.1018 53.9062 22.0998C53.9062 22.0979 53.9062 22.0959 53.9062 22.094C53.9062 22.092 53.9062 22.0901 53.9062 22.0881C53.9062 22.0861 53.9062 22.0842 53.9062 22.0822C53.9062 22.0803 53.9062 22.0783 53.9062 22.0763C53.9062 22.0744 53.9062 22.0724 53.9062 22.0704C53.9062 22.0685 53.9062 22.0665 53.9062 22.0645C53.9062 22.0625 53.9062 22.0606 53.9062 22.0586C53.9062 22.0566 53.9062 22.0547 53.9062 22.0527C53.9062 22.0507 53.9062 22.0487 53.9062 22.0468C53.9062 22.0448 53.9062 22.0428 53.9062 22.0408C53.9062 22.0388 53.9062 22.0368 53.9062 22.0349C53.9062 22.0329 53.9062 22.0309 53.9062 22.0289C53.9062 22.0269 53.9062 22.0249 53.9062 22.0229C53.9062 22.021 53.9062 22.019 53.9062 22.017C53.9062 22.015 53.9062 22.013 53.9062 22.011C53.9062 22.009 53.9062 22.007 53.9062 22.005C53.9062 22.003 53.9062 22.001 53.9062 21.999C53.9062 21.997 53.9062 21.995 53.9062 21.993C53.9062 21.991 53.9062 21.989 53.9062 21.987C53.9062 21.985 53.9062 21.983 53.9062 21.981C53.9062 21.979 53.9062 21.977 53.9062 21.975C53.9062 21.973 53.9062 21.9709 53.9062 21.9689C53.9062 21.9669 53.9062 21.9649 53.9062 21.9629C53.9062 21.9609 53.9062 21.9589 53.9062 21.9568C53.9062 21.9548 53.9062 21.9528 53.9062 21.9508C53.9062 21.9488 53.9062 21.9467 53.9062 21.9447C53.9062 21.9427 53.9062 21.9407 53.9062 21.9387C53.9062 21.9366 53.9062 21.9346 53.9062 21.9326C53.9062 21.9305 53.9062 21.9285 53.9062 21.9265C53.9062 21.9245 53.9062 21.9224 53.9062 21.9204C53.9062 21.9184 53.9062 21.9163 53.9062 21.9143C53.9062 21.9122 53.9062 21.9102 53.9062 21.9082C53.9062 21.9061 53.9062 21.9041 53.9062 21.9021C53.9062 21.9 53.9062 21.898 53.9062 21.8959C53.9062 21.8939 53.9062 21.8918 53.9062 21.8898C53.9062 21.8877 53.9062 21.8857 53.9062 21.8836C53.9062 21.8816 53.9062 21.8795 53.9062 21.8775C53.9062 21.8754 53.9062 21.8734 53.9062 21.8713C53.9062 21.8693 53.9062 21.8672 53.9062 21.8652C53.9062 21.8631 53.9062 21.8611 53.9062 21.859C53.9062 21.8569 53.9062 21.8549 53.9062 21.8528C53.9062 21.8507 53.9062 21.8487 53.9062 21.8466C53.9062 21.8446 53.9062 21.8425 53.9062 21.8404C53.9062 21.8384 53.9062 21.8363 53.9062 21.8342C53.9062 21.8321 53.9062 21.8301 53.9062 21.828C53.9062 21.8259 53.9062 21.8239 53.9062 21.8218C53.9062 21.8197 53.9062 21.8176 53.9062 21.8156C53.9062 21.8135 53.9062 21.8114 53.9062 21.8093C53.9062 21.8072 53.9062 21.8052 53.9062 21.8031C53.9062 21.801 53.9062 21.7989 53.9062 21.7968C53.9062 21.7947 53.9062 21.7926 53.9062 21.7906C53.9062 21.7885 53.9062 21.7864 53.9062 21.7843C53.9062 21.7822 53.9062 21.7801 53.9062 21.778C53.9062 21.7759 53.9062 21.7738 53.9062 21.7717C53.9062 21.7696 53.9062 21.7675 53.9062 21.7654C53.9062 21.7633 53.9062 21.7612 53.9062 21.7591C53.9062 21.757 53.9062 21.7549 53.9062 21.7528C53.9062 21.7507 53.9062 21.7486 53.9062 21.7465C53.9062 21.7444 53.9062 21.7423 53.9062 21.7402C53.9062 21.7381 53.9062 21.736 53.9062 21.7338C53.9062 21.7317 53.9062 21.7296 53.9062 21.7275C53.9062 21.7254 53.9062 21.7233 53.9062 21.7212C53.9062 21.719 53.9062 21.7169 53.9062 21.7148C53.9062 21.7127 53.9062 21.7106 53.9062 21.7084C53.9062 21.7063 53.9062 21.7042 53.9062 21.7021C53.9062 21.6999 53.9062 21.6978 53.9062 21.6957C53.9062 21.6936 53.9062 21.6914 53.9062 21.6893C53.9062 21.6872 53.9062 21.685 53.9062 21.6829C53.9062 21.6808 53.9062 21.6786 53.9062 21.6765C53.9062 21.6744 53.9062 21.6722 53.9062 21.6701C53.9062 21.668 53.9062 21.6658 53.9062 21.6637C53.9062 21.6615 53.9062 21.6594 53.9062 21.6572C53.9062 21.6551 53.9062 21.653 53.9062 21.6508C53.9062 21.6487 53.9062 21.6465 53.9062 21.6444C53.9062 21.6422 53.9062 21.6401 53.9062 21.6379C53.9062 21.6358 53.9062 21.6336 53.9062 21.6315C53.9062 21.6293 53.9062 21.6272 53.9062 21.625H51.9062C51.9062 21.6272 51.9062 21.6293 51.9062 21.6315C51.9062 21.6336 51.9062 21.6358 51.9062 21.6379C51.9062 21.6401 51.9062 21.6422 51.9062 21.6444C51.9062 21.6465 51.9062 21.6487 51.9062 21.6508C51.9062 21.653 51.9062 21.6551 51.9062 21.6572C51.9062 21.6594 51.9062 21.6615 51.9062 21.6637C51.9062 21.6658 51.9062 21.668 51.9062 21.6701C51.9062 21.6722 51.9062 21.6744 51.9062 21.6765C51.9062 21.6786 51.9062 21.6808 51.9062 21.6829C51.9062 21.685 51.9062 21.6872 51.9062 21.6893C51.9062 21.6914 51.9062 21.6936 51.9062 21.6957C51.9062 21.6978 51.9062 21.6999 51.9062 21.7021C51.9062 21.7042 51.9062 21.7063 51.9062 21.7084C51.9062 21.7106 51.9062 21.7127 51.9062 21.7148C51.9062 21.7169 51.9062 21.719 51.9062 21.7212C51.9062 21.7233 51.9062 21.7254 51.9062 21.7275C51.9062 21.7296 51.9062 21.7317 51.9062 21.7338C51.9062 21.736 51.9062 21.7381 51.9062 21.7402C51.9062 21.7423 51.9062 21.7444 51.9062 21.7465C51.9062 21.7486 51.9062 21.7507 51.9062 21.7528C51.9062 21.7549 51.9062 21.757 51.9062 21.7591C51.9062 21.7612 51.9062 21.7633 51.9062 21.7654C51.9062 21.7675 51.9062 21.7696 51.9062 21.7717C51.9062 21.7738 51.9062 21.7759 51.9062 21.778C51.9062 21.7801 51.9062 21.7822 51.9062 21.7843C51.9062 21.7864 51.9062 21.7885 51.9062 21.7906C51.9062 21.7926 51.9062 21.7947 51.9062 21.7968C51.9062 21.7989 51.9062 21.801 51.9062 21.8031C51.9062 21.8052 51.9062 21.8072 51.9062 21.8093C51.9062 21.8114 51.9062 21.8135 51.9062 21.8156C51.9062 21.8176 51.9062 21.8197 51.9062 21.8218C51.9062 21.8239 51.9062 21.8259 51.9062 21.828C51.9062 21.8301 51.9062 21.8321 51.9062 21.8342C51.9062 21.8363 51.9062 21.8384 51.9062 21.8404C51.9062 21.8425 51.9062 21.8446 51.9062 21.8466C51.9062 21.8487 51.9062 21.8507 51.9062 21.8528C51.9062 21.8549 51.9062 21.8569 51.9062 21.859C51.9062 21.8611 51.9062 21.8631 51.9062 21.8652C51.9062 21.8672 51.9062 21.8693 51.9062 21.8713C51.9062 21.8734 51.9062 21.8754 51.9062 21.8775C51.9062 21.8795 51.9062 21.8816 51.9062 21.8836C51.9062 21.8857 51.9062 21.8877 51.9062 21.8898C51.9062 21.8918 51.9062 21.8939 51.9062 21.8959C51.9062 21.898 51.9062 21.9 51.9062 21.9021C51.9062 21.9041 51.9062 21.9061 51.9062 21.9082C51.9062 21.9102 51.9062 21.9122 51.9062 21.9143C51.9062 21.9163 51.9062 21.9184 51.9062 21.9204C51.9062 21.9224 51.9062 21.9245 51.9062 21.9265C51.9062 21.9285 51.9062 21.9305 51.9062 21.9326C51.9062 21.9346 51.9062 21.9366 51.9062 21.9387C51.9062 21.9407 51.9062 21.9427 51.9062 21.9447C51.9062 21.9467 51.9062 21.9488 51.9062 21.9508C51.9062 21.9528 51.9062 21.9548 51.9062 21.9568C51.9062 21.9589 51.9062 21.9609 51.9062 21.9629C51.9062 21.9649 51.9062 21.9669 51.9062 21.9689C51.9062 21.9709 51.9062 21.973 51.9062 21.975C51.9062 21.977 51.9062 21.979 51.9062 21.981C51.9062 21.983 51.9062 21.985 51.9062 21.987C51.9062 21.989 51.9062 21.991 51.9062 21.993C51.9062 21.995 51.9062 21.997 51.9062 21.999C51.9062 22.001 51.9062 22.003 51.9062 22.005C51.9062 22.007 51.9062 22.009 51.9062 22.011C51.9062 22.013 51.9062 22.015 51.9062 22.017C51.9062 22.019 51.9062 22.021 51.9062 22.0229C51.9062 22.0249 51.9062 22.0269 51.9062 22.0289C51.9062 22.0309 51.9062 22.0329 51.9062 22.0349C51.9062 22.0368 51.9062 22.0388 51.9062 22.0408C51.9062 22.0428 51.9062 22.0448 51.9062 22.0468C51.9062 22.0487 51.9062 22.0507 51.9062 22.0527C51.9062 22.0547 51.9062 22.0566 51.9062 22.0586C51.9062 22.0606 51.9062 22.0625 51.9062 22.0645C51.9062 22.0665 51.9062 22.0685 51.9062 22.0704C51.9062 22.0724 51.9062 22.0744 51.9062 22.0763C51.9062 22.0783 51.9062 22.0803 51.9062 22.0822C51.9062 22.0842 51.9062 22.0861 51.9062 22.0881C51.9062 22.0901 51.9062 22.092 51.9062 22.094C51.9062 22.0959 51.9062 22.0979 51.9062 22.0998C51.9062 22.1018 51.9062 22.1038 51.9062 22.1057C51.9062 22.1077 51.9062 22.1096 51.9062 22.1116C51.9062 22.1135 51.9062 22.1155 51.9062 22.1174C51.9062 22.1193 51.9062 22.1213 51.9062 22.1232C51.9062 22.1252 51.9062 22.1271 51.9062 22.1291C51.9062 22.131 51.9062 22.1329 51.9062 22.1349C51.9062 22.1368 51.9062 22.1388 51.9062 22.1407C51.9062 22.1426 51.9062 22.1446 51.9062 22.1465C51.9062 22.1484 51.9062 22.1504 51.9062 22.1523C51.9062 22.1542 51.9062 22.1562 51.9062 22.1581C51.9062 22.16 51.9062 22.1619 51.9062 22.1639C51.9062 22.1658 51.9062 22.1677 51.9062 22.1696C51.9062 22.1716 51.9062 22.1735 51.9062 22.1754C51.9062 22.1773 51.9062 22.1792 51.9062 22.1812C51.9062 22.1831 51.9062 22.185 51.9062 22.1869C51.9062 22.1888 51.9062 22.1907 51.9062 22.1927C51.9062 22.1946 51.9062 22.1965 51.9062 22.1984C51.9062 22.2003 51.9062 22.2022 51.9062 22.2041C51.9062 22.206 51.9062 22.2079 51.9062 22.2098C51.9062 22.2117 51.9062 22.2136 51.9062 22.2155C51.9062 22.2175 51.9062 22.2194 51.9062 22.2213C51.9062 22.2232 51.9062 22.225 51.9062 22.2269C51.9062 22.2288 51.9062 22.2307 51.9062 22.2326C51.9062 22.2345 51.9062 22.2364 51.9062 22.2383C51.9062 22.2402 51.9062 22.2421 51.9062 22.244C51.9062 22.2459 51.9062 22.2478 51.9062 22.2496C51.9062 22.2515 51.9062 22.2534 51.9062 22.2553C51.9062 22.2572 51.9062 22.2591 51.9062 22.2609C51.9062 22.2628 51.9062 22.2647 51.9062 22.2666C51.9062 22.2685 51.9062 22.2703 51.9062 22.2722C51.9062 22.2741 51.9062 22.276 51.9062 22.2778C51.9062 22.2797 51.9062 22.2816 51.9062 22.2835C51.9062 22.2853 51.9062 22.2872 51.9062 22.2891C51.9062 22.2909 51.9062 22.2928 51.9062 22.2947C51.9062 22.2965 51.9062 22.2984 51.9062 22.3003C51.9062 22.3021 51.9062 22.304 51.9062 22.3058C51.9062 22.3077 51.9062 22.3096 51.9062 22.3114C51.9062 22.3133 51.9062 22.3151 51.9062 22.317C51.9062 22.3188 51.9062 22.3207 51.9062 22.3226C51.9062 22.3244 51.9062 22.3263 51.9062 22.3281C51.9062 22.33 51.9062 22.3318 51.9062 22.3337C51.9062 22.3355 51.9062 22.3373 51.9062 22.3392C51.9062 22.341 51.9062 22.3429 51.9062 22.3447C51.9062 22.3466 51.9062 22.3484 51.9062 22.3502C51.9062 22.3521 51.9062 22.3539 51.9062 22.3558C51.9062 22.3576 51.9062 22.3594 51.9062 22.3613C51.9062 22.3631 51.9062 22.3649 51.9062 22.3668C51.9062 22.3686 51.9062 22.3704 51.9062 22.3722C51.9062 22.3741 51.9062 22.3759 51.9062 22.3777C51.9062 22.3796 51.9062 22.3814 51.9062 22.3832C51.9062 22.385 51.9062 22.3869 51.9062 22.3887C51.9062 22.3905 51.9062 22.3923 51.9062 22.3941C51.9062 22.396 51.9062 22.3978 51.9062 22.3996C51.9062 22.4014 51.9062 22.4032 51.9062 22.405C51.9062 22.4068 51.9062 22.4086 51.9062 22.4105C51.9062 22.4123 51.9062 22.4141 51.9062 22.4159C51.9062 22.4177 51.9062 22.4195 51.9062 22.4213C51.9062 22.4231 51.9062 22.4249 51.9062 22.4267C51.9062 22.4285 51.9062 22.4303 51.9062 22.4321C51.9062 22.4339 51.9062 22.4357 51.9062 22.4375C51.9062 22.4393 51.9062 22.4411 51.9062 22.4429C51.9062 22.4447 51.9062 22.4465 51.9062 22.4483C51.9062 22.4501 51.9062 22.4519 51.9062 22.4537C51.9062 22.4554 51.9062 22.4572 51.9062 22.459C51.9062 22.4608 51.9062 22.4626 51.9062 22.4644C51.9062 22.4662 51.9062 22.4679 51.9062 22.4697C51.9062 22.4715 51.9062 22.4733 51.9062 22.4751C51.9062 22.4768 51.9062 22.4786 51.9062 22.4804C51.9062 22.4822 51.9062 22.484 51.9062 22.4857C51.9062 22.4875 51.9062 22.4893 51.9062 22.491C51.9062 22.4928 51.9062 22.4946 51.9062 22.4964C51.9062 22.4981 51.9062 22.4999 51.9062 22.5017C51.9062 22.5034 51.9062 22.5052 51.9062 22.5069C51.9062 22.5087 51.9062 22.5105 51.9062 22.5122C51.9062 22.514 51.9062 22.5158 51.9062 22.5175C51.9062 22.5193 51.9062 22.521 51.9062 22.5228C51.9062 22.5245 51.9062 22.5263 51.9062 22.528C51.9062 22.5298 51.9062 22.5315 51.9062 22.5333C51.9062 22.535 51.9062 22.5368 51.9062 22.5385C51.9062 22.5403 51.9062 22.542 51.9062 22.5438C51.9062 22.5455 51.9062 22.5473 51.9062 22.549C51.9062 22.5508 51.9062 22.5525 51.9062 22.5542C51.9062 22.556 51.9062 22.5577 51.9062 22.5594C51.9062 22.5612 51.9062 22.5629 51.9062 22.5647C51.9062 22.5664 51.9062 22.5681 51.9062 22.5699C51.9062 22.5716 51.9062 22.5733 51.9062 22.575C51.9062 22.5768 51.9062 22.5785 51.9062 22.5802C51.9062 22.582 51.9062 22.5837 51.9062 22.5854C51.9062 22.5871 51.9062 22.5889 51.9062 22.5906C51.9062 22.5923 51.9062 22.594 51.9062 22.5957C51.9062 22.5975 51.9062 22.5992 51.9062 22.6009C51.9062 22.6026 51.9062 22.6043 51.9062 22.606C51.9062 22.6077 51.9062 22.6095 51.9062 22.6112C51.9062 22.6129 51.9062 22.6146 51.9062 22.6163C51.9062 22.618 51.9062 22.6197 51.9062 22.6214C51.9062 22.6231 51.9062 22.6248 51.9062 22.6265C51.9062 22.6282 51.9062 22.6299 51.9062 22.6316C51.9062 22.6333 51.9062 22.635 51.9062 22.6367C51.9062 22.6384 51.9062 22.6401 51.9062 22.6418C51.9062 22.6435 51.9062 22.6452 51.9062 22.6469C51.9062 22.6486 51.9062 22.6503 51.9062 22.652C51.9062 22.6537 51.9062 22.6553 51.9062 22.657C51.9062 22.6587 51.9062 22.6604 51.9062 22.6621C51.9062 22.6638 51.9062 22.6655 51.9062 22.6671C51.9062 22.6688 51.9062 22.6705 51.9062 22.6722C51.9062 22.6739 51.9062 22.6755 51.9062 22.6772C51.9062 22.6789 51.9062 22.6806 51.9062 22.6822C51.9062 22.6839 51.9062 22.6856 51.9062 22.6873C51.9062 22.6889 51.9062 22.6906 51.9062 22.6923C51.9062 22.6939 51.9062 22.6956 51.9062 22.6973C51.9062 22.6989 51.9062 22.7006 51.9062 22.7023C51.9062 22.7039 51.9062 22.7056 51.9062 22.7073C51.9062 22.7089 51.9062 22.7106 51.9062 22.7122C51.9062 22.7139 51.9062 22.7155 51.9062 22.7172C51.9062 22.7189 51.9062 22.7205 51.9062 22.7222C51.9062 22.7238 51.9062 22.7255 51.9062 22.7271C51.9062 22.7288 51.9062 22.7304 51.9062 22.7321C51.9062 22.7337 51.9062 22.7354 51.9062 22.737C51.9062 22.7387 51.9062 22.7403 51.9062 22.7419C51.9062 22.7436 51.9062 22.7452 51.9062 22.7469C51.9062 22.7485 51.9062 22.7501 51.9062 22.7518C51.9062 22.7534 51.9062 22.7551 51.9062 22.7567C51.9062 22.7583 51.9062 22.76 51.9062 22.7616C51.9062 22.7632 51.9062 22.7649 51.9062 22.7665C51.9062 22.7681 51.9062 22.7697 51.9062 22.7714C51.9062 22.773 51.9062 22.7746 51.9062 22.7762C51.9062 22.7779 51.9062 22.7795 51.9062 22.7811C51.9062 22.7827 51.9062 22.7844 51.9062 22.786C51.9062 22.7876 51.9062 22.7892 51.9062 22.7908C51.9062 22.7924 51.9062 22.7941 51.9062 22.7957C51.9062 22.7973 51.9062 22.7989 51.9062 22.8005C51.9062 22.8021 51.9062 22.8037 51.9062 22.8053C51.9062 22.8069 51.9062 22.8086 51.9062 22.8102C51.9062 22.8118 51.9062 22.8134 51.9062 22.815C51.9062 22.8166 51.9062 22.8182 51.9062 22.8198C51.9062 22.8214 51.9062 22.823 51.9062 22.8246C51.9062 22.8262 51.9062 22.8278 51.9062 22.8294C51.9062 22.831 51.9062 22.8326 51.9062 22.8341C51.9062 22.8357 51.9062 22.8373 51.9062 22.8389C51.9062 22.8405 51.9062 22.8421 51.9062 22.8437C51.9062 22.8453 51.9062 22.8469 51.9062 22.8484C51.9062 22.85 51.9062 22.8516 51.9062 22.8532C51.9062 22.8548 51.9062 22.8564 51.9062 22.8579C51.9062 22.8595 51.9062 22.8611 51.9062 22.8627C51.9062 22.8643 51.9062 22.8658 51.9062 22.8674C51.9062 22.869 51.9062 22.8705 51.9062 22.8721C51.9062 22.8737 51.9062 22.8753 51.9062 22.8768C51.9062 22.8784 51.9062 22.88 51.9062 22.8815C51.9062 22.8831 51.9062 22.8847 51.9062 22.8862C51.9062 22.8878 51.9062 22.8894 51.9062 22.8909C51.9062 22.8925 51.9062 22.894 51.9062 22.8956C51.9062 22.8972 51.9062 22.8987 51.9062 22.9003C51.9062 22.9018 51.9062 22.9034 51.9062 22.9049C51.9062 22.9065 51.9062 22.908 51.9062 22.9096C51.9062 22.9111 51.9062 22.9127 51.9062 22.9142C51.9062 22.9158 51.9062 22.9173 51.9062 22.9189C51.9062 22.9204 51.9062 22.922 51.9062 22.9235C51.9062 22.9251 51.9062 22.9266 51.9062 22.9281C51.9062 22.9297 51.9062 22.9312 51.9062 22.9328C51.9062 22.9343 51.9062 22.9358 51.9062 22.9374C51.9062 22.9389 51.9062 22.9404 51.9062 22.942C51.9062 22.9435 51.9062 22.945 51.9062 22.9466C51.9062 22.9481 51.9062 22.9496 51.9062 22.9511C51.9062 22.9527 51.9062 22.9542 51.9062 22.9557C51.9062 22.9572 51.9062 22.9588 51.9062 22.9603C51.9062 22.9618 51.9062 22.9633 51.9062 22.9649C51.9062 22.9664 51.9062 22.9679 51.9062 22.9694C51.9062 22.9709 51.9062 22.9724 51.9062 22.9739C51.9062 22.9755 51.9062 22.977 51.9062 22.9785C51.9062 22.98 51.9062 22.9815 51.9062 22.983C51.9062 22.9845 51.9062 22.986 51.9062 22.9875C51.9062 22.989 51.9062 22.9906 51.9062 22.9921C51.9062 22.9936 51.9062 22.9951 51.9062 22.9966C51.9062 22.9981 51.9062 22.9996 51.9062 23.0011C51.9062 23.0026 51.9062 23.0041 51.9062 23.0056C51.9062 23.007 51.9062 23.0085 51.9062 23.01C51.9062 23.0115 51.9062 23.013 51.9062 23.0145C51.9062 23.016 51.9062 23.0175 51.9062 23.019C51.9062 23.0205 51.9062 23.022 51.9062 23.0234C51.9062 23.0249 51.9062 23.0264 51.9062 23.0279C51.9062 23.0294 51.9062 23.0309 51.9062 23.0323C51.9062 23.0338 51.9062 23.0353 51.9062 23.0368C51.9062 23.0382 51.9062 23.0397 51.9062 23.0412C51.9062 23.0427 51.9062 23.0441 51.9062 23.0456C51.9062 23.0471 51.9062 23.0486 51.9062 23.05C51.9062 23.0515 51.9062 23.053 51.9062 23.0544C51.9062 23.0559 51.9062 23.0574 51.9062 23.0588C51.9062 23.0603 51.9062 23.0618 51.9062 23.0632C51.9062 23.0647 51.9062 23.0661 51.9062 23.0676C51.9062 23.0691 51.9062 23.0705 51.9062 23.072C51.9062 23.0734 51.9062 23.0749 51.9062 23.0763C51.9062 23.0778 51.9062 23.0792 51.9062 23.0807C51.9062 23.0821 51.9062 23.0836 51.9062 23.085C51.9062 23.0865 51.9062 23.0879 51.9062 23.0894C51.9062 23.0908 51.9062 23.0923 51.9062 23.0937C51.9062 23.0952 51.9062 23.0966 51.9062 23.098C51.9062 23.0995 51.9062 23.1009 51.9062 23.1024C51.9062 23.1038 51.9062 23.1052 51.9062 23.1067C51.9062 23.1081 51.9062 23.1095 51.9062 23.111C51.9062 23.1124 51.9062 23.1138 51.9062 23.1153C51.9062 23.1167 51.9062 23.1181 51.9062 23.1196C51.9062 23.121 51.9062 23.1224 51.9062 23.1238C51.9062 23.1253 51.9062 23.1267 51.9062 23.1281C51.9062 23.1295 51.9062 23.1309 51.9062 23.1324C51.9062 23.1338 51.9062 23.1352 51.9062 23.1366C51.9062 23.138 51.9062 23.1395 51.9062 23.1409C51.9062 23.1423 51.9062 23.1437 51.9062 23.1451C51.9062 23.1465 51.9062 23.1479 51.9062 23.1493C51.9062 23.1507 51.9062 23.1522 51.9062 23.1536C51.9062 23.155 51.9062 23.1564 51.9062 23.1578C51.9062 23.1592 51.9062 23.1606 51.9062 23.162C51.9062 23.1634 51.9062 23.1648 51.9062 23.1662C51.9062 23.1676 51.9062 23.169 51.9062 23.1704C51.9062 23.1718 51.9062 23.1732 51.9062 23.1746C51.9062 23.176 51.9062 23.1773 51.9062 23.1787C51.9062 23.1801 51.9062 23.1815 51.9062 23.1829C51.9062 23.1843 51.9062 23.1857 51.9062 23.1871C51.9062 23.1885 51.9062 23.1898 51.9062 23.1912C51.9062 23.1926 51.9062 23.194 51.9062 23.1954C51.9062 23.1967 51.9062 23.1981 51.9062 23.1995C51.9062 23.2009 51.9062 23.2023 51.9062 23.2036C51.9062 23.205 51.9062 23.2064 51.9062 23.2078C51.9062 23.2091 51.9062 23.2105 51.9062 23.2119C51.9062 23.2132 51.9062 23.2146 51.9062 23.216C51.9062 23.2173 51.9062 23.2187 51.9062 23.2201C51.9062 23.2214 51.9062 23.2228 51.9062 23.2242C51.9062 23.2255 51.9062 23.2269 51.9062 23.2282C51.9062 23.2296 51.9062 23.231 51.9062 23.2323C51.9062 23.2337 51.9062 23.235 51.9062 23.2364C51.9062 23.2377 51.9062 23.2391 51.9062 23.2404C51.9062 23.2418 51.9062 23.2431 51.9062 23.2445C51.9062 23.2458 51.9062 23.2472 51.9062 23.2485C51.9062 23.2499 51.9062 23.2512 51.9062 23.2526C51.9062 23.2539 51.9062 23.2553 51.9062 23.2566C51.9062 23.2579 51.9062 23.2593 51.9062 23.2606C51.9062 23.262 51.9062 23.2633 51.9062 23.2646C51.9062 23.266 51.9062 23.2673 51.9062 23.2686C51.9062 23.27 51.9062 23.2713 51.9062 23.2726C51.9062 23.274 51.9062 23.2753 51.9062 23.2766C51.9062 23.2779 51.9062 23.2793 51.9062 23.2806C51.9062 23.2819 51.9062 23.2832 51.9062 23.2846C51.9062 23.2859 51.9062 23.2872 51.9062 23.2885C51.9062 23.2898 51.9062 23.2912 51.9062 23.2925C51.9062 23.2938 51.9062 23.2951 51.9062 23.2964C51.9062 23.2977 51.9062 23.2991 51.9062 23.3004C51.9062 23.3017 51.9062 23.303 51.9062 23.3043C51.9062 23.3056 51.9062 23.3069 51.9062 23.3082C51.9062 23.3095 51.9062 23.3108 51.9062 23.3121C51.9062 23.3134 51.9062 23.3148 51.9062 23.3161C51.9062 23.3174 51.9062 23.3187 51.9062 23.32C51.9062 23.3213 51.9062 23.3225 51.9062 23.3238C51.9062 23.3251 51.9062 23.3264 51.9062 23.3277C51.9062 23.329 51.9062 23.3303 51.9062 23.3316C51.9062 23.3329 51.9062 23.3342 51.9062 23.3355C51.9062 23.3368 51.9062 23.3381 51.9062 23.3393C51.9062 23.3406 51.9062 23.3419 51.9062 23.3432C51.9062 23.3445 51.9062 23.3458 51.9062 23.347C51.9062 23.3483 51.9062 23.3496 51.9062 23.3509C51.9062 23.3522 51.9062 23.3534 51.9062 23.3547C51.9062 23.356 51.9062 23.3573 51.9062 23.3585C51.9062 23.3598 51.9062 23.3611 51.9062 23.3623C51.9062 23.3636 51.9062 23.3649 51.9062 23.3661C51.9062 23.3674 51.9062 23.3687 51.9062 23.3699C51.9062 23.3712 51.9062 23.3725 51.9062 23.3737C51.9062 23.375 51.9062 23.3763 51.9062 23.3775C51.9062 23.3788 51.9062 23.38 51.9062 23.3813C51.9062 23.3826 51.9062 23.3838 51.9062 23.3851C51.9062 23.3863 51.9062 23.3876 51.9062 23.3888C51.9062 23.3901 51.9062 23.3913 51.9062 23.3926C51.9062 23.3938 51.9062 23.3951 51.9062 23.3963C51.9062 23.3976 51.9062 23.3988 51.9062 23.4001C51.9062 23.4013 51.9062 23.4025 51.9062 23.4038C51.9062 23.405 51.9062 23.4063 51.9062 23.4075C51.9062 23.4087 51.9062 23.41 51.9062 23.4112C51.9062 23.4124 51.9062 23.4137 51.9062 23.4149C51.9062 23.4161 51.9062 23.4174 51.9062 23.4186C51.9062 23.4198 51.9062 23.4211 51.9062 23.4223C51.9062 23.4235 51.9062 23.4248 51.9062 23.426C51.9062 23.4272 51.9062 23.4284 51.9062 23.4297C51.9062 23.4309 51.9062 23.4321 51.9062 23.4333C51.9062 23.4345 51.9062 23.4358 51.9062 23.437C51.9062 23.4382 51.9062 23.4394 51.9062 23.4406C51.9062 23.4418 51.9062 23.4431 51.9062 23.4443C51.9062 23.4455 51.9062 23.4467 51.9062 23.4479C51.9062 23.4491 51.9062 23.4503 51.9062 23.4515C51.9062 23.4527 51.9062 23.4539 51.9062 23.4551C51.9062 23.4563 51.9062 23.4576 51.9062 23.4588C51.9062 23.46 51.9062 23.4612 51.9062 23.4624C51.9062 23.4636 51.9062 23.4648 51.9062 23.466C51.9062 23.4671 51.9062 23.4683 51.9062 23.4695C51.9062 23.4707 51.9062 23.4719 51.9062 23.4731C51.9062 23.4743 51.9062 23.4755 51.9062 23.4767C51.9062 23.4779 51.9062 23.4791 51.9062 23.4802C51.9062 23.4814 51.9062 23.4826 51.9062 23.4838C51.9062 23.485 51.9062 23.4862 51.9062 23.4874C51.9062 23.4885 51.9062 23.4897 51.9062 23.4909C51.9062 23.4921 51.9062 23.4932 51.9062 23.4944C51.9062 23.4956 51.9062 23.4968 51.9062 23.4979C51.9062 23.4991 51.9062 23.5003 51.9062 23.5015C51.9062 23.5026 51.9062 23.5038 51.9062 23.505C51.9062 23.5061 51.9062 23.5073 51.9062 23.5085C51.9062 23.5096 51.9062 23.5108 51.9062 23.512C51.9062 23.5131 51.9062 23.5143 51.9062 23.5154C51.9062 23.5166 51.9062 23.5178 51.9062 23.5189C51.9062 23.5201 51.9062 23.5212 51.9062 23.5224C51.9062 23.5235 51.9062 23.5247 51.9062 23.5258C51.9062 23.527 51.9062 23.5281 51.9062 23.5293C51.9062 23.5304 51.9062 23.5316 51.9062 23.5327C51.9062 23.5339 51.9062 23.535 51.9062 23.5362C51.9062 23.5373 51.9062 23.5385 51.9062 23.5396C51.9062 23.5407 51.9062 23.5419 51.9062 23.543C51.9062 23.5442 51.9062 23.5453 51.9062 23.5464C51.9062 23.5476 51.9062 23.5487 51.9062 23.5498C51.9062 23.551 51.9062 23.5521 51.9062 23.5532C51.9062 23.5544 51.9062 23.5555 51.9062 23.5566C51.9062 23.5578 51.9062 23.5589 51.9062 23.56C51.9062 23.5611 51.9062 23.5623 51.9062 23.5634C51.9062 23.5645 51.9062 23.5656 51.9062 23.5668C51.9062 23.5679 51.9062 23.569 51.9062 23.5701C51.9062 23.5712 51.9062 23.5723 51.9062 23.5735C51.9062 23.5746 51.9062 23.5757 51.9062 23.5768C51.9062 23.5779 51.9062 23.579 51.9062 23.5801C51.9062 23.5812 51.9062 23.5824 51.9062 23.5835C51.9062 23.5846 51.9062 23.5857 51.9062 23.5868C51.9062 23.5879 51.9062 23.589 51.9062 23.5901C51.9062 23.5912 51.9062 23.5923 51.9062 23.5934C51.9062 23.5945 51.9062 23.5956 51.9062 23.5967C51.9062 23.5978 51.9062 23.5989 51.9062 23.6C51.9062 23.6011 51.9062 23.6022 51.9062 23.6033C51.9062 23.6044 51.9062 23.6054 51.9062 23.6065C51.9062 23.6076 51.9062 23.6087 51.9062 23.6098C51.9062 23.6109 51.9062 23.612 51.9062 23.613C51.9062 23.6141 51.9062 23.6152 51.9062 23.6163C51.9062 23.6174 51.9062 23.6185 51.9062 23.6195C51.9062 23.6206 51.9062 23.6217 51.9062 23.6228C51.9062 23.6238 51.9062 23.6249 51.9062 23.626C51.9062 23.6271 51.9062 23.6281 51.9062 23.6292C51.9062 23.6303 51.9062 23.6314 51.9062 23.6324C51.9062 23.6335 51.9062 23.6346 51.9062 23.6356C51.9062 23.6367 51.9062 23.6377 51.9062 23.6388C51.9062 23.6399 51.9062 23.6409 51.9062 23.642C51.9062 23.6431 51.9062 23.6441 51.9062 23.6452C51.9062 23.6462 51.9062 23.6473 51.9062 23.6483C51.9062 23.6494 51.9062 23.6505 51.9062 23.6515C51.9062 23.6526 51.9062 23.6536 51.9062 23.6547C51.9062 23.6557 51.9062 23.6568 51.9062 23.6578C51.9062 23.6589 51.9062 23.6599 51.9062 23.6609C51.9062 23.662 51.9062 23.663 51.9062 23.6641C51.9062 23.6651 51.9062 23.6662 51.9062 23.6672C51.9062 23.6682 51.9062 23.6693 51.9062 23.6703C51.9062 23.6713 51.9062 23.6724 51.9062 23.6734C51.9062 23.6744 51.9062 23.6755 51.9062 23.6765C51.9062 23.6775 51.9062 23.6786 51.9062 23.6796C51.9062 23.6806 51.9062 23.6817 51.9062 23.6827C51.9062 23.6837 51.9062 23.6847 51.9062 23.6858C51.9062 23.6868 51.9062 23.6878 51.9062 23.6888C51.9062 23.6898 51.9062 23.6909 51.9062 23.6919C51.9062 23.6929 51.9062 23.6939 51.9062 23.6949C51.9062 23.696 51.9062 23.697 51.9062 23.698C51.9062 23.699 51.9062 23.7 51.9062 23.701C51.9062 23.702 51.9062 23.703 51.9062 23.704C51.9062 23.7051 51.9062 23.7061 51.9062 23.7071C51.9062 23.7081 51.9062 23.7091 51.9062 23.7101C51.9062 23.7111 51.9062 23.7121 51.9062 23.7131C51.9062 23.7141 51.9062 23.7151 51.9062 23.7161C51.9062 23.7171 51.9062 23.7181 51.9062 23.7191C51.9062 23.7201 51.9062 23.7211 51.9062 23.722C51.9062 23.723 51.9062 23.724 51.9062 23.725C51.9062 23.726 51.9062 23.727 51.9062 23.728C51.9062 23.729 51.9062 23.73 51.9062 23.7309C51.9062 23.7319 51.9062 23.7329 51.9062 23.7339C51.9062 23.7349 51.9062 23.7358 51.9062 23.7368C51.9062 23.7378 51.9062 23.7388 51.9062 23.7398C51.9062 23.7407 51.9062 23.7417 51.9062 23.7427C51.9062 23.7437 51.9062 23.7446 51.9062 23.7456C51.9062 23.7466 51.9062 23.7475 51.9062 23.7485C51.9062 23.7495 51.9062 23.7505 51.9062 23.7514C51.9062 23.7524 51.9062 23.7533 51.9062 23.7543C51.9062 23.7553 51.9062 23.7562 51.9062 23.7572C51.9062 23.7582 51.9062 23.7591 51.9062 23.7601C51.9062 23.761 51.9062 23.762 51.9062 23.7629C51.9062 23.7639 51.9062 23.7649 51.9062 23.7658C51.9062 23.7668 51.9062 23.7677 51.9062 23.7687C51.9062 23.7696 51.9062 23.7706 51.9062 23.7715C51.9062 23.7725 51.9062 23.7734 51.9062 23.7743C51.9062 23.7753 51.9062 23.7762 51.9062 23.7772C51.9062 23.7781 51.9062 23.7791 51.9062 23.78C51.9062 23.7809 51.9062 23.7819 51.9062 23.7828C51.9062 23.7838 51.9062 23.7847 51.9062 23.7856C51.9062 23.7866 51.9062 23.7875 51.9062 23.7884C51.9062 23.7894 51.9062 23.7903 51.9062 23.7912C51.9062 23.7921 51.9062 23.7931 51.9062 23.794C51.9062 23.7949 51.9062 23.7958 51.9062 23.7968C51.9062 23.7977 51.9062 23.7986 51.9062 23.7995C51.9062 23.8005 51.9062 23.8014 51.9062 23.8023C51.9062 23.8032 51.9062 23.8041 51.9062 23.805C51.9062 23.806 51.9062 23.8069 51.9062 23.8078C51.9062 23.8087 51.9062 23.8096 51.9062 23.8105C51.9062 23.8114 51.9062 23.8124 51.9062 23.8133C51.9062 23.8142 51.9062 23.8151 51.9062 23.816C51.9062 23.8169 51.9062 23.8178 51.9062 23.8187C51.9062 23.8196 51.9062 23.8205 51.9062 23.8214C51.9062 23.8223 51.9062 23.8232 51.9062 23.8241C51.9062 23.825 51.9062 23.8259 51.9062 23.8268C51.9062 23.8277 51.9062 23.8286 51.9062 23.8295C51.9062 23.8304 51.9062 23.8312 51.9062 23.8321C51.9062 23.833 51.9062 23.8339 51.9062 23.8348C51.9062 23.8357 51.9062 23.8366 51.9062 23.8375C51.9062 23.8383 51.9062 23.8392 51.9062 23.8401C51.9062 23.841 51.9062 23.8419 51.9062 23.8428C51.9062 23.8436 51.9062 23.8445 51.9062 23.8454C51.9062 23.8463 51.9062 23.8471 51.9062 23.848C51.9062 23.8489 51.9062 23.8498 51.9062 23.8506C51.9062 23.8515 51.9062 23.8524 51.9062 23.8532C51.9062 23.8541 51.9062 23.855 51.9062 23.8559C51.9062 23.8567 51.9062 23.8576 51.9062 23.8584C51.9062 23.8593 51.9062 23.8602 51.9062 23.861C51.9062 23.8619 51.9062 23.8628 51.9062 23.8636C51.9062 23.8645 51.9062 23.8653 51.9062 23.8662C51.9062 23.867 51.9062 23.8679 51.9062 23.8687C51.9062 23.8696 51.9062 23.8704 51.9062 23.8713C51.9062 23.8722 51.9062 23.873 51.9062 23.8738C51.9062 23.8747 51.9062 23.8755 51.9062 23.8764C51.9062 23.8772 51.9062 23.8781 51.9062 23.8789C51.9062 23.8798 51.9062 23.8806 51.9062 23.8814C51.9062 23.8823 51.9062 23.8831 51.9062 23.884C51.9062 23.8848 51.9062 23.8856 51.9062 23.8865C51.9062 23.8873 51.9062 23.8881 51.9062 23.889C51.9062 23.8898 51.9062 23.8906 51.9062 23.8915C51.9062 23.8923 51.9062 23.8931 51.9062 23.8939C51.9062 23.8948 51.9062 23.8956 51.9062 23.8964C51.9062 23.8972 51.9062 23.8981 51.9062 23.8989C51.9062 23.8997 51.9062 23.9005 51.9062 23.9014C51.9062 23.9022 51.9062 23.903 51.9062 23.9038C51.9062 23.9046 51.9062 23.9054 51.9062 23.9062H53.9062ZM53.9062 21.625C53.9062 20.506 53.9166 19.2717 53.9374 17.9216L51.9376 17.8909C51.9167 19.2492 51.9062 20.494 51.9062 21.625H53.9062ZM53.937 17.937C53.9785 16.5897 54.0302 15.3801 54.0921 14.3076L52.0954 14.1924C52.0323 15.2865 51.9799 16.5145 51.938 17.8755L53.937 17.937ZM52.3276 13.6074C51.8034 14.2323 51.3181 14.7563 50.8713 15.1836L52.2537 16.6289C52.7653 16.1396 53.3007 15.5594 53.8599 14.8926L52.3276 13.6074ZM50.8554 15.1991C50.4077 15.6468 49.9719 16.0623 49.5478 16.446L50.8897 17.929C51.3406 17.521 51.8006 17.0823 52.2696 16.6134L50.8554 15.1991ZM49.5822 16.4162L44.3947 20.6975L45.6678 22.24L50.8553 17.9588L49.5822 16.4162ZM45.807 20.8377L39.4007 12.9627L37.8493 14.2248L44.2555 22.0998L45.807 20.8377ZM39.2566 14.369L54.9441 1.58776L53.6809 0.0372372L37.9934 12.8185L39.2566 14.369ZM54.3125 1.8125H65.4375V-0.1875H54.3125V1.8125ZM64.4375 0.8125V46.5H66.4375V0.8125H64.4375Z" fill="#024D60"/>
</svg>
