<svg width="72" height="48" viewBox="0 0 72 48" fill="none" xmlns="http://www.w3.org/2000/svg">
<path d="M32.875 33.5625L33.855 33.7613L33.8553 33.76L32.875 33.5625ZM30.0625 40.9062L29.2199 40.3677L29.216 40.3739L30.0625 40.9062ZM7.875 44.3438L7.26528 45.1364L7.26957 45.1396L7.875 44.3438ZM2.46875 36.3125L1.51836 36.6236L1.52064 36.6304L2.46875 36.3125ZM2.3125 11.0625L1.35514 10.7736L1.35405 10.7772L2.3125 11.0625ZM26.5938 2.96875L25.9807 3.75887L25.9883 3.76465L26.5938 2.96875ZM32 11.0312L31.0508 11.3458L31.0513 11.3475L32 11.0312ZM13.3438 31.2188L12.349 31.3213L12.3501 31.3314L13.3438 31.2188ZM14.5938 35.7812L13.7332 36.2906L13.7393 36.301L13.7458 36.3112L14.5938 35.7812ZM19.875 35.7812L20.731 36.2984L20.7356 36.2906L19.875 35.7812ZM21.125 31.25L22.1185 31.3638L22.1186 31.3627L21.125 31.25ZM19.875 11.5938L19.0099 12.0955L19.0144 12.1031L19.875 11.5938ZM14.5938 11.5938L13.7362 11.0792L13.7332 11.0844L14.5938 11.5938ZM13.3438 16.1562L12.3501 16.0436L12.349 16.0537L13.3438 16.1562ZM32.75 23.7188C32.75 27.3343 32.4622 30.5475 31.8947 33.365L33.8553 33.76C34.4544 30.7858 34.75 27.4366 34.75 23.7188H32.75ZM31.895 33.3637C31.3308 36.144 30.4323 38.471 29.2199 40.3677L30.9051 41.4448C32.2761 39.2999 33.2525 36.731 33.855 33.7613L31.895 33.3637ZM29.216 40.3739C28.0406 42.243 26.489 43.6591 24.5493 44.6386L25.4507 46.4239C27.7193 45.2784 29.5427 43.6112 30.909 41.4386L29.216 40.3739ZM24.5493 44.6386C22.6203 45.6126 20.2011 46.125 17.25 46.125V48.125C20.4239 48.125 23.1714 47.5749 25.4507 46.4239L24.5493 44.6386ZM17.25 46.125C13.6017 46.125 10.705 45.24 8.48043 43.5479L7.26957 45.1396C9.92004 47.1558 13.2733 48.125 17.25 48.125V46.125ZM8.48471 43.5511C6.233 41.819 4.5328 39.3224 3.41686 35.9946L1.52064 36.6304C2.73804 40.2609 4.642 43.1185 7.26529 45.1364L8.48471 43.5511ZM3.41912 36.0014C2.31497 32.6287 1.75 28.5415 1.75 23.7188H-0.25C-0.25 28.6877 0.330865 32.9963 1.51838 36.6236L3.41912 36.0014ZM1.75 23.7188C1.75 18.8463 2.26459 14.7291 3.27095 11.3478L1.35405 10.7772C0.277077 14.3959 -0.25 18.7162 -0.25 23.7188H1.75ZM3.26986 11.3514C4.28477 7.98825 5.92253 5.48258 8.14425 3.75883L6.91825 2.17867C4.30664 4.20492 2.46523 7.09508 1.35514 10.7736L3.26986 11.3514ZM8.14425 3.75883C10.3356 2.05862 13.3367 1.15625 17.25 1.15625V-0.84375C13.0383 -0.84375 9.56019 0.128883 6.91825 2.17867L8.14425 3.75883ZM17.25 1.15625C20.8963 1.15625 23.779 2.05055 25.9808 3.75883L27.2067 2.17867C24.5752 0.136948 21.2287 -0.84375 17.25 -0.84375V1.15625ZM25.9883 3.76465C28.234 5.47293 29.9339 7.9754 31.0508 11.3458L32.9492 10.7167C31.7327 7.04544 29.8285 4.1729 27.1992 2.17285L25.9883 3.76465ZM31.0513 11.3475C32.1746 14.7172 32.75 18.8334 32.75 23.7188H34.75C34.75 18.6875 34.1588 14.3453 32.9487 10.715L31.0513 11.3475ZM12.0312 23.7188C12.0312 26.718 12.136 29.2547 12.349 31.3213L14.3385 31.1162C14.1349 29.1411 14.0312 26.6779 14.0312 23.7188H12.0312ZM12.3501 31.3314C12.5854 33.4062 13.0233 35.0911 13.7332 36.2906L15.4543 35.2719C14.9559 34.4297 14.5604 33.073 14.3374 31.1061L12.3501 31.3314ZM13.7458 36.3112C14.547 37.5933 15.7473 38.2812 17.25 38.2812V36.2812C16.461 36.2812 15.8905 35.9692 15.4417 35.2513L13.7458 36.3112ZM17.25 38.2812C18.7544 38.2812 19.95 37.5909 20.7309 36.2984L19.0191 35.2641C18.5916 35.9716 18.0373 36.2812 17.25 36.2812V38.2812ZM20.7356 36.2906C21.4447 35.0925 21.883 33.4194 22.1185 31.3638L20.1315 31.1362C19.9087 33.0806 19.5137 34.4284 19.0144 35.2719L20.7356 36.2906ZM22.1186 31.3627C22.3535 29.2914 22.4688 26.7405 22.4688 23.7188H20.4688C20.4688 26.697 20.3548 29.1669 20.1314 31.1373L22.1186 31.3627ZM22.4688 23.7188C22.4688 20.6764 22.3535 18.115 22.1186 16.0436L20.1314 16.2689C20.3548 18.2391 20.4688 20.7194 20.4688 23.7188H22.4688ZM22.1186 16.0436C21.8833 13.9688 21.4455 12.2839 20.7356 11.0844L19.0144 12.1031C19.5129 12.9453 19.9083 14.302 20.1314 16.2689L22.1186 16.0436ZM20.74 11.092C19.9682 9.76121 18.7741 9.03125 17.25 9.03125V11.0312C18.0175 11.0312 18.5735 11.343 19.01 12.0955L20.74 11.092ZM17.25 9.03125C15.7279 9.03125 14.5288 9.75842 13.7363 11.0793L15.4512 12.1082C15.9087 11.3457 16.4804 11.0312 17.25 11.0312V9.03125ZM13.7332 11.0844C13.0233 12.2839 12.5854 13.9688 12.3501 16.0436L14.3374 16.2689C14.5604 14.302 14.9559 12.9453 15.4543 12.1031L13.7332 11.0844ZM12.349 16.0537C12.1359 18.1207 12.0312 20.6784 12.0312 23.7188H14.0312C14.0312 20.7174 14.1349 18.2335 14.3385 16.2588L12.349 16.0537ZM71.0625 46.5V47.5H72.0625V46.5H71.0625ZM37.9062 46.5H36.9062V47.5H37.9062V46.5ZM37.9062 38.375L37.1952 37.6718L36.9062 37.964V38.375H37.9062ZM49.0625 27.0938L49.7735 27.7969L49.7793 27.7911L49.785 27.7851L49.0625 27.0938ZM54.4375 21.2812L53.6889 20.6182L53.6836 20.6243L54.4375 21.2812ZM49.1562 11.7812L49.643 12.6548L49.6471 12.6525L49.1562 11.7812ZM44.1875 15.4062L43.4272 16.0558L44.0808 16.8209L44.8418 16.1625L44.1875 15.4062ZM37.4062 7.46875L36.7398 6.72321L36.0108 7.37488L36.6459 8.11831L37.4062 7.46875ZM41.7812 3.96875L42.3635 4.78177L42.3707 4.77654L41.7812 3.96875ZM63 1.78125L62.5694 2.68381L62.5726 2.68532L63 1.78125ZM68.3125 6.25L67.4776 6.80046L67.4805 6.8047L68.3125 6.25ZM68.7188 19.75L67.8137 19.3246L67.8119 19.3286L68.7188 19.75ZM64.375 25.9688L65.1039 26.6534L65.1073 26.6498L64.375 25.9688ZM57.125 33L57.7928 33.7443L57.7966 33.7409L57.125 33ZM53.7812 36L53.1134 35.2557L52.7812 35.5537V36H53.7812ZM53.7812 36.3125H52.7812V37.3125H53.7812V36.3125ZM71.0625 36.3125H72.0625V35.3125H71.0625V36.3125ZM71.0625 45.5H37.9062V47.5H71.0625V45.5ZM38.9062 46.5V38.375H36.9062V46.5H38.9062ZM38.6173 39.0782L49.7735 27.7969L48.3515 26.3906L37.1952 37.6718L38.6173 39.0782ZM49.785 27.7851C52.1017 25.364 53.9057 23.4137 55.1914 21.9382L53.6836 20.6243C52.4277 22.0655 50.6483 23.9901 48.34 26.4024L49.785 27.7851ZM55.1861 21.9443C56.5006 20.4602 57.4703 19.1474 58.047 18.017L56.2655 17.108C55.8006 18.0193 54.9577 19.1857 53.6889 20.6182L55.1861 21.9443ZM58.047 18.017C58.6368 16.8609 58.9375 15.6432 58.9375 14.375H56.9375C56.9375 15.3151 56.7173 16.2224 56.2655 17.108L58.047 18.017ZM58.9375 14.375C58.9375 12.7928 58.412 11.4561 57.1932 10.6146L56.0568 12.2604C56.588 12.6272 56.9375 13.2488 56.9375 14.375H58.9375ZM57.1932 10.6146C56.1319 9.88184 54.8971 9.53125 53.5312 9.53125V11.5312C54.5404 11.5312 55.3681 11.7848 56.0568 12.2604L57.1932 10.6146ZM53.5312 9.53125C51.893 9.53125 50.2672 10.0076 48.6654 10.91L49.6471 12.6525C51.0037 11.8882 52.2945 11.5312 53.5312 11.5312V9.53125ZM48.6695 10.9077C47.1308 11.765 45.4174 13.0198 43.5332 14.65L44.8418 16.1625C46.6659 14.5843 48.265 13.4225 49.643 12.6548L48.6695 10.9077ZM44.9478 14.7567L38.1666 6.81919L36.6459 8.11831L43.4272 16.0558L44.9478 14.7567ZM38.0727 8.21429C39.4201 7.00977 40.8503 5.86554 42.3635 4.78174L41.199 3.15576C39.6289 4.28029 38.1424 5.4694 36.7398 6.72321L38.0727 8.21429ZM42.3707 4.77654C43.8177 3.72062 45.5462 2.84745 47.569 2.16649L46.931 0.271009C44.7455 1.00672 42.8281 1.96688 41.1918 3.16096L42.3707 4.77654ZM47.569 2.16649C49.5408 1.50273 51.9888 1.15625 54.9375 1.15625V-0.84375C51.8446 -0.84375 49.1675 -0.481892 46.931 0.271009L47.569 2.16649ZM54.9375 1.15625C57.9267 1.15625 60.4608 1.67783 62.5694 2.6838L63.4306 0.878696C60.9976 -0.281998 58.1566 -0.84375 54.9375 -0.84375V1.15625ZM62.5726 2.68532C64.7184 3.6997 66.3399 5.0749 67.4776 6.80046L69.1474 5.69954C67.7851 3.63343 65.8649 2.02947 63.4274 0.877178L62.5726 2.68532ZM67.4805 6.8047C68.6139 8.50485 69.1875 10.4447 69.1875 12.6562H71.1875C71.1875 10.0761 70.5111 7.74515 69.1445 5.6953L67.4805 6.8047ZM69.1875 12.6562C69.1875 15.177 68.7216 17.3929 67.8137 19.3246L69.6238 20.1754C70.6742 17.9404 71.1875 15.4272 71.1875 12.6562H69.1875ZM67.8119 19.3286C66.9072 21.2755 65.5259 23.2628 63.6427 25.2877L65.1073 26.6498C67.0991 24.508 68.6136 22.3495 69.6256 20.1714L67.8119 19.3286ZM63.6461 25.2841C61.7324 27.3213 59.3363 29.6458 56.4534 32.2591L57.7966 33.7409C60.7054 31.1042 63.1426 28.7412 65.1039 26.6534L63.6461 25.2841ZM56.4572 32.2557L53.1134 35.2557L54.4491 36.7443L57.7928 33.7443L56.4572 32.2557ZM52.7812 36V36.3125H54.7812V36H52.7812ZM53.7812 37.3125H71.0625V35.3125H53.7812V37.3125ZM70.0625 36.3125V46.5H72.0625V36.3125H70.0625Z" fill="#024D60"/>
</svg>
