<svg width="71" height="48" viewBox="0 0 71 48" fill="none" xmlns="http://www.w3.org/2000/svg">
<path d="M32.875 33.5625L33.855 33.7613L33.8553 33.76L32.875 33.5625ZM30.0625 40.9062L29.2199 40.3677L29.216 40.3739L30.0625 40.9062ZM7.875 44.3438L7.26528 45.1364L7.26957 45.1396L7.875 44.3438ZM2.46875 36.3125L1.51836 36.6236L1.52064 36.6304L2.46875 36.3125ZM2.3125 11.0625L1.35514 10.7736L1.35405 10.7772L2.3125 11.0625ZM26.5938 2.96875L25.9807 3.75887L25.9883 3.76465L26.5938 2.96875ZM32 11.0312L31.0508 11.3458L31.0513 11.3475L32 11.0312ZM13.3438 31.2188L12.349 31.3213L12.3501 31.3314L13.3438 31.2188ZM14.5938 35.7812L13.7332 36.2906L13.7393 36.301L13.7458 36.3112L14.5938 35.7812ZM19.875 35.7812L20.731 36.2984L20.7356 36.2906L19.875 35.7812ZM21.125 31.25L22.1185 31.3638L22.1186 31.3627L21.125 31.25ZM19.875 11.5938L19.0099 12.0955L19.0144 12.1031L19.875 11.5938ZM14.5938 11.5938L13.7362 11.0792L13.7332 11.0844L14.5938 11.5938ZM13.3438 16.1562L12.3501 16.0436L12.349 16.0537L13.3438 16.1562ZM32.75 23.7188C32.75 27.3343 32.4622 30.5475 31.8947 33.365L33.8553 33.76C34.4544 30.7858 34.75 27.4366 34.75 23.7188H32.75ZM31.895 33.3637C31.3308 36.144 30.4323 38.471 29.2199 40.3677L30.9051 41.4448C32.2761 39.2999 33.2525 36.731 33.855 33.7613L31.895 33.3637ZM29.216 40.3739C28.0406 42.243 26.489 43.6591 24.5493 44.6386L25.4507 46.4239C27.7193 45.2784 29.5427 43.6112 30.909 41.4386L29.216 40.3739ZM24.5493 44.6386C22.6203 45.6126 20.2011 46.125 17.25 46.125V48.125C20.4239 48.125 23.1714 47.5749 25.4507 46.4239L24.5493 44.6386ZM17.25 46.125C13.6017 46.125 10.705 45.24 8.48043 43.5479L7.26957 45.1396C9.92004 47.1558 13.2733 48.125 17.25 48.125V46.125ZM8.48471 43.5511C6.233 41.819 4.5328 39.3224 3.41686 35.9946L1.52064 36.6304C2.73804 40.2609 4.642 43.1185 7.26529 45.1364L8.48471 43.5511ZM3.41912 36.0014C2.31497 32.6287 1.75 28.5415 1.75 23.7188H-0.25C-0.25 28.6877 0.330865 32.9963 1.51838 36.6236L3.41912 36.0014ZM1.75 23.7188C1.75 18.8463 2.26459 14.7291 3.27095 11.3478L1.35405 10.7772C0.277077 14.3959 -0.25 18.7162 -0.25 23.7188H1.75ZM3.26986 11.3514C4.28477 7.98825 5.92253 5.48258 8.14425 3.75883L6.91825 2.17867C4.30664 4.20492 2.46523 7.09508 1.35514 10.7736L3.26986 11.3514ZM8.14425 3.75883C10.3356 2.05862 13.3367 1.15625 17.25 1.15625V-0.84375C13.0383 -0.84375 9.56019 0.128883 6.91825 2.17867L8.14425 3.75883ZM17.25 1.15625C20.8963 1.15625 23.779 2.05055 25.9808 3.75883L27.2067 2.17867C24.5752 0.136948 21.2287 -0.84375 17.25 -0.84375V1.15625ZM25.9883 3.76465C28.234 5.47293 29.9339 7.9754 31.0508 11.3458L32.9492 10.7167C31.7327 7.04544 29.8285 4.1729 27.1992 2.17285L25.9883 3.76465ZM31.0513 11.3475C32.1746 14.7172 32.75 18.8334 32.75 23.7188H34.75C34.75 18.6875 34.1588 14.3453 32.9487 10.715L31.0513 11.3475ZM12.0312 23.7188C12.0312 26.718 12.136 29.2547 12.349 31.3213L14.3385 31.1162C14.1349 29.1411 14.0312 26.6779 14.0312 23.7188H12.0312ZM12.3501 31.3314C12.5854 33.4062 13.0233 35.0911 13.7332 36.2906L15.4543 35.2719C14.9559 34.4297 14.5604 33.073 14.3374 31.1061L12.3501 31.3314ZM13.7458 36.3112C14.547 37.5933 15.7473 38.2812 17.25 38.2812V36.2812C16.461 36.2812 15.8905 35.9692 15.4417 35.2513L13.7458 36.3112ZM17.25 38.2812C18.7544 38.2812 19.95 37.5909 20.7309 36.2984L19.0191 35.2641C18.5916 35.9716 18.0373 36.2812 17.25 36.2812V38.2812ZM20.7356 36.2906C21.4447 35.0925 21.883 33.4194 22.1185 31.3638L20.1315 31.1362C19.9087 33.0806 19.5137 34.4284 19.0144 35.2719L20.7356 36.2906ZM22.1186 31.3627C22.3535 29.2914 22.4688 26.7405 22.4688 23.7188H20.4688C20.4688 26.697 20.3548 29.1669 20.1314 31.1373L22.1186 31.3627ZM22.4688 23.7188C22.4688 20.6764 22.3535 18.115 22.1186 16.0436L20.1314 16.2689C20.3548 18.2391 20.4688 20.7194 20.4688 23.7188H22.4688ZM22.1186 16.0436C21.8833 13.9688 21.4455 12.2839 20.7356 11.0844L19.0144 12.1031C19.5129 12.9453 19.9083 14.302 20.1314 16.2689L22.1186 16.0436ZM20.74 11.092C19.9682 9.76121 18.7741 9.03125 17.25 9.03125V11.0312C18.0175 11.0312 18.5735 11.343 19.01 12.0955L20.74 11.092ZM17.25 9.03125C15.7279 9.03125 14.5288 9.75842 13.7363 11.0793L15.4512 12.1082C15.9087 11.3457 16.4804 11.0312 17.25 11.0312V9.03125ZM13.7332 11.0844C13.0233 12.2839 12.5854 13.9688 12.3501 16.0436L14.3374 16.2689C14.5604 14.302 14.9559 12.9453 15.4543 12.1031L13.7332 11.0844ZM12.349 16.0537C12.1359 18.1207 12.0312 20.6784 12.0312 23.7188H14.0312C14.0312 20.7174 14.1349 18.2335 14.3385 16.2588L12.349 16.0537ZM68.125 16.3438L67.2645 15.8343L67.2625 15.8377L68.125 16.3438ZM64.4375 20.1875L63.8933 19.3485L63.8881 19.3519L64.4375 20.1875ZM59.4375 22.4375L59.1716 21.4735L58.4375 21.676V22.4375H59.4375ZM59.4375 22.625H58.4375V23.5072L59.3128 23.6172L59.4375 22.625ZM67.875 25.9688L67.2082 26.714L67.2165 26.7213L67.875 25.9688ZM68.875 40.3125L69.7148 40.8554L69.7173 40.8516L68.875 40.3125ZM62.6562 45.2812L63.0567 46.1976L63.0624 46.1951L62.6562 45.2812ZM44.25 46.4688L44.0445 47.4474L44.25 46.4688ZM38.1875 44.6562H37.1875V45.3373L37.8212 45.5868L38.1875 44.6562ZM38.1875 34.4062L38.6459 33.5175L37.1875 32.7653V34.4062H38.1875ZM44.2812 36.6875L44.0479 37.66L44.0592 37.6625L44.2812 36.6875ZM56.1562 36.125L55.5444 35.334L55.5371 35.3397L56.1562 36.125ZM57.0312 30.0312L56.2175 30.6125L57.0312 30.0312ZM54.125 28.3438L53.8522 29.3058L53.8559 29.3069L54.125 28.3438ZM45.2812 27.75H44.2812V28.75H45.2812V27.75ZM45.2812 18.4688V17.4688H44.2812V18.4688H45.2812ZM53.6875 17.8438L53.3975 16.8867L53.3934 16.888L53.6875 17.8438ZM56.6562 16.1562L57.4171 16.8052L57.4217 16.7998L57.4263 16.7943L56.6562 16.1562ZM43.375 13.0312L42.5256 13.5589L43.059 14.4176L43.9119 13.8749L43.375 13.0312ZM38.25 4.78125L37.6869 3.95483L36.8947 4.49461L37.4006 5.30893L38.25 4.78125ZM44.75 1.5L44.4076 0.560436L44.405 0.561382L44.75 1.5ZM65.4688 2.96875L64.8966 3.78888L64.8995 3.79094L65.4688 2.96875ZM68.5312 10.7188C68.5312 12.7383 68.0956 14.4306 67.2645 15.8343L68.9855 16.8532C70.0294 15.0902 70.5312 13.0326 70.5312 10.7188H68.5312ZM67.2625 15.8377C66.4257 17.264 65.3064 18.432 63.8933 19.3485L64.9817 21.0265C66.652 19.943 67.9909 18.5485 68.9875 16.8498L67.2625 15.8377ZM63.8881 19.3519C62.4573 20.2927 60.8868 21.0003 59.1716 21.4735L59.7034 23.4015C61.6132 22.8747 63.376 22.0823 64.9869 21.0231L63.8881 19.3519ZM58.4375 22.4375V22.625H60.4375V22.4375H58.4375ZM59.3128 23.6172C62.8321 24.0596 65.4284 25.1216 67.2082 26.714L68.5418 25.2235C66.3632 23.2743 63.3346 22.107 59.5622 21.6328L59.3128 23.6172ZM67.2165 26.7213C68.9533 28.2411 69.875 30.4291 69.875 33.4375H71.875C71.875 29.9876 70.7967 27.1964 68.5335 25.2162L67.2165 26.7213ZM69.875 33.4375C69.875 35.7486 69.2619 37.8529 68.0327 39.7734L69.7173 40.8516C71.1548 38.6055 71.875 36.1264 71.875 33.4375H69.875ZM68.0352 39.7696C66.8312 41.6321 64.93 43.1764 62.2501 44.3674L63.0624 46.1951C66.0075 44.8861 68.2522 43.1179 69.7148 40.8554L68.0352 39.7696ZM62.2558 44.3649C59.6123 45.5202 56.1471 46.125 51.8125 46.125V48.125C56.3112 48.125 60.0752 47.5006 63.0567 46.1976L62.2558 44.3649ZM51.8125 46.125C48.8987 46.125 46.4509 45.9091 44.4555 45.4901L44.0445 47.4474C46.2158 47.9034 48.8097 48.125 51.8125 48.125V46.125ZM44.4555 45.4901C42.4264 45.064 40.4594 44.4758 38.5538 43.7257L37.8212 45.5868C39.8323 46.3783 41.9069 46.9985 44.0445 47.4474L44.4555 45.4901ZM39.1875 44.6562V34.4062H37.1875V44.6562H39.1875ZM37.7291 35.295C39.7768 36.3512 41.8834 37.1404 44.0479 37.6599L44.5146 35.7151C42.5124 35.2346 40.5565 34.503 38.6459 33.5175L37.7291 35.295ZM44.0592 37.6625C46.2191 38.1544 48.2116 38.4062 50.0312 38.4062V36.4062C48.3925 36.4062 46.5517 36.1789 44.5033 35.7125L44.0592 37.6625ZM50.0312 38.4062C51.5729 38.4062 52.9069 38.297 54.0173 38.0648C55.1187 37.8344 56.0662 37.4694 56.7754 36.9103L55.5371 35.3397C55.163 35.6347 54.548 35.9104 53.6077 36.1071C52.6765 36.3019 51.4896 36.4062 50.0312 36.4062V38.4062ZM56.7681 36.916C58.1255 35.8659 58.8125 34.4238 58.8125 32.6875H56.8125C56.8125 33.8262 56.3954 34.6757 55.5444 35.334L56.7681 36.916ZM58.8125 32.6875C58.8125 31.4724 58.5058 30.3752 57.845 29.45L56.2175 30.6125C56.5984 31.1457 56.8125 31.8193 56.8125 32.6875H58.8125ZM57.845 29.45C57.1299 28.4489 55.9003 27.8015 54.3941 27.3806L53.8559 29.3069C55.183 29.6777 55.891 30.1553 56.2175 30.6125L57.845 29.45ZM54.3978 27.3817C52.8689 26.9481 50.7494 26.75 48.0938 26.75V28.75C50.6881 28.75 52.5895 28.9477 53.8522 29.3058L54.3978 27.3817ZM48.0938 26.75H45.2812V28.75H48.0938V26.75ZM46.2812 27.75V18.4688H44.2812V27.75H46.2812ZM45.2812 19.4688H48.1562V17.4688H45.2812V19.4688ZM48.1562 19.4688C50.5337 19.4688 52.4906 19.2583 53.9816 18.7995L53.3934 16.888C52.1761 17.2625 50.4455 17.4688 48.1562 17.4688V19.4688ZM53.9775 18.8008C55.4437 18.3565 56.6384 17.7182 57.4171 16.8052L55.8954 15.5073C55.4658 16.011 54.6813 16.4977 53.3975 16.8867L53.9775 18.8008ZM57.4263 16.7943C58.1774 15.8877 58.5625 14.8293 58.5625 13.6562H56.5625C56.5625 14.3582 56.3434 14.9665 55.8862 15.5182L57.4263 16.7943ZM58.5625 13.6562C58.5625 12.1414 57.9471 10.9053 56.6846 10.1197L55.6279 11.8178C56.2404 12.1989 56.5625 12.7544 56.5625 13.6562H58.5625ZM56.6846 10.1197C55.5375 9.40599 54.0951 9.09375 52.4375 9.09375V11.0938C53.8633 11.0938 54.9 11.3648 55.6279 11.8178L56.6846 10.1197ZM52.4375 9.09375C50.9707 9.09375 49.5784 9.29393 48.2661 9.70119L48.8589 11.6113C49.9633 11.2686 51.1543 11.0938 52.4375 11.0938V9.09375ZM48.2661 9.70119C47.0163 10.0891 45.9087 10.5259 44.9508 11.016L45.8617 12.7965C46.6954 12.3699 47.6921 11.9734 48.8589 11.6113L48.2661 9.70119ZM44.9508 11.016C44.0462 11.4788 43.3363 11.8706 42.8381 12.1876L43.9119 13.8749C44.3304 13.6086 44.9746 13.2504 45.8617 12.7965L44.9508 11.016ZM44.2244 12.5036L39.0994 4.25357L37.4006 5.30893L42.5256 13.5589L44.2244 12.5036ZM38.8131 5.60767C40.6328 4.36782 42.7245 3.3098 45.095 2.43862L44.405 0.561382C41.9005 1.48187 39.6588 2.61135 37.6869 3.95483L38.8131 5.60767ZM45.0924 2.43956C47.3999 1.5987 50.4797 1.15625 54.375 1.15625V-0.84375C50.3536 -0.84375 47.0168 -0.390366 44.4076 0.56044L45.0924 2.43956ZM54.375 1.15625C58.9644 1.15625 62.4356 2.07193 64.8966 3.78888L66.0409 2.14862C63.1269 0.115568 59.2023 -0.84375 54.375 -0.84375V1.15625ZM64.8995 3.79094C67.3383 5.47932 68.5312 7.75551 68.5312 10.7188H70.5312C70.5312 7.09866 69.0159 4.20818 66.038 2.14656L64.8995 3.79094Z" fill="#024D60"/>
</svg>
