<svg width="15" height="10" viewBox="0 0 15 10" fill="none" xmlns="http://www.w3.org/2000/svg">
<path d="M13.6664 1.22659C13.4166 0.978256 13.0787 0.838867 12.7264 0.838867C12.3742 0.838867 12.0363 0.978256 11.7864 1.22659L6.99977 5.94659L2.27977 1.22659C2.02995 0.978256 1.69202 0.838867 1.33977 0.838867C0.987521 0.838867 0.649585 0.978256 0.399769 1.22659C0.274798 1.35054 0.175605 1.49801 0.107913 1.66049C0.0402218 1.82297 0.00537109 1.99724 0.00537109 2.17326C0.00537109 2.34927 0.0402218 2.52355 0.107913 2.68603C0.175605 2.84851 0.274798 2.99597 0.399769 3.11992L6.0531 8.77326C6.17705 8.89823 6.32452 8.99742 6.487 9.06511C6.64948 9.1328 6.82375 9.16765 6.99977 9.16765C7.17578 9.16765 7.35006 9.1328 7.51254 9.06511C7.67502 8.99742 7.82248 8.89823 7.94643 8.77326L13.6664 3.11992C13.7914 2.99597 13.8906 2.84851 13.9583 2.68603C14.026 2.52355 14.0608 2.34927 14.0608 2.17326C14.0608 1.99724 14.026 1.82297 13.9583 1.66049C13.8906 1.49801 13.7914 1.35054 13.6664 1.22659Z" fill="#141010"/>
</svg>
