<svg width="41" height="49" viewBox="0 0 41 49" fill="none" xmlns="http://www.w3.org/2000/svg">
<path d="M38.1663 13.4584V44.3751C38.1663 44.9608 37.9337 45.5225 37.5195 45.9366C37.1054 46.3508 36.5437 46.5834 35.958 46.5834H5.04134C4.45565 46.5834 3.89396 46.3508 3.47981 45.9366C3.06567 45.5225 2.83301 44.9608 2.83301 44.3751V4.62508C2.83301 4.0394 3.06567 3.4777 3.47981 3.06355C3.89396 2.64941 4.45565 2.41675 5.04134 2.41675H27.1247M38.1663 13.4584H27.1247V2.41675M38.1663 13.4584L27.1247 2.41675M12.7705 25.6042H28.2288L22.708 20.0834M28.2288 32.2293H12.7705L18.2913 37.7501" stroke="#FEFEFE" stroke-width="4" stroke-linecap="round" stroke-linejoin="round"/>
</svg>
