<svg width="37" height="49" viewBox="0 0 37 49" fill="none" xmlns="http://www.w3.org/2000/svg">
<path d="M29.74 4.22758C27.7089 2.55716 25.3306 1.36123 22.7785 0.727027C20.2265 0.0928265 17.565 0.0363595 14.9883 0.561746C11.5574 1.25477 8.40964 2.95133 5.94447 5.43616C3.4793 7.92099 1.8078 11.0821 1.14205 14.5184C0.655874 17.0949 0.744219 19.747 1.40078 22.2854C2.05734 24.8239 3.26594 27.1862 4.94038 29.2038C6.49435 30.9574 7.38508 33.1998 7.45788 35.5417V42.1668C7.45788 43.9238 8.15587 45.6089 9.3983 46.8513C10.6407 48.0938 12.3258 48.7918 14.0829 48.7918H22.9162C24.6733 48.7918 26.3584 48.0938 27.6008 46.8513C28.8432 45.6089 29.5412 43.9238 29.5412 42.1668V35.9613C29.6153 33.3757 30.5652 30.8919 32.2354 28.9167C35.1617 25.2968 36.5411 20.6682 36.0738 16.0369C35.6066 11.4056 33.3304 7.14587 29.74 4.18341V4.22758ZM25.1245 42.1668C25.1245 42.7524 24.8919 43.3141 24.4777 43.7283C24.0636 44.1424 23.5019 44.3751 22.9162 44.3751H14.0829C13.4972 44.3751 12.9355 44.1424 12.5214 43.7283C12.1072 43.3141 11.8745 42.7524 11.8745 42.1668V39.9584H25.1245V42.1668ZM28.8125 26.1784C26.592 28.8121 25.2965 32.1012 25.1245 35.5417H20.7079V28.9167C20.7079 28.3311 20.4752 27.7694 20.0611 27.3552C19.6469 26.9411 19.0852 26.7084 18.4995 26.7084C17.9139 26.7084 17.3522 26.9411 16.938 27.3552C16.5239 27.7694 16.2912 28.3311 16.2912 28.9167V35.5417H11.8745C11.8163 32.1588 10.5649 28.9052 8.34121 26.3551C6.87409 24.5972 5.88752 22.4892 5.47769 20.2366C5.06786 17.9839 5.24878 15.6635 6.00278 13.5015C6.75679 11.3396 8.05815 9.40997 9.77999 7.90076C11.5018 6.39154 13.5854 5.35427 15.8275 4.89008C17.7543 4.49334 19.7454 4.53066 21.6561 4.99933C23.5667 5.46799 25.3491 6.35625 26.8736 7.5996C28.3982 8.84295 29.6268 10.4102 30.4702 12.1876C31.3136 13.9649 31.7506 15.9078 31.7495 17.8751C31.7659 20.9002 30.7273 23.8364 28.8125 26.1784V26.1784Z" fill="#FEFEFE"/>
</svg>
