<svg width="49" height="45" viewBox="0 0 49 45" fill="none" xmlns="http://www.w3.org/2000/svg">
<path d="M44.3747 0.752075H4.62467C2.19551 0.752075 0.208008 2.73958 0.208008 5.16874V31.6687C0.208008 34.0979 2.19551 36.0854 4.62467 36.0854H20.083V40.5021H17.8747C16.6601 40.5021 15.6663 41.4958 15.6663 42.7104C15.6663 43.925 16.6601 44.9187 17.8747 44.9187H31.1247C32.3393 44.9187 33.333 43.925 33.333 42.7104C33.333 41.4958 32.3393 40.5021 31.1247 40.5021H28.9163V36.0854H44.3747C46.8038 36.0854 48.7913 34.0979 48.7913 31.6687V5.16874C48.7913 2.73958 46.8038 0.752075 44.3747 0.752075ZM42.1663 31.6687H6.83301C5.61842 31.6687 4.62467 30.675 4.62467 29.4604V7.37708C4.62467 6.16249 5.61842 5.16874 6.83301 5.16874H42.1663C43.3809 5.16874 44.3747 6.16249 44.3747 7.37708V29.4604C44.3747 30.675 43.3809 31.6687 42.1663 31.6687Z" fill="#FEFEFE"/>
</svg>
