<svg width="527" height="25" viewBox="0 0 527 25" fill="none" xmlns="http://www.w3.org/2000/svg">
<path d="M9.38672 19.2344C8.11328 19.2344 6.9375 19.0156 5.85938 18.5781C4.78906 18.1406 3.85547 17.5273 3.05859 16.7383C2.26953 15.9492 1.65625 15.0195 1.21875 13.9492C0.789062 12.8711 0.574219 11.6992 0.574219 10.4336C0.574219 9.16016 0.792969 7.98828 1.23047 6.91797C1.66797 5.83984 2.28125 4.90625 3.07031 4.11719C3.86719 3.32812 4.80078 2.71484 5.87109 2.27734C6.94922 1.83984 8.12109 1.62109 9.38672 1.62109C10.6133 1.62109 11.7578 1.84375 12.8203 2.28906C13.8906 2.72656 14.8281 3.34375 15.6328 4.14062C16.4375 4.92969 17.0664 5.85938 17.5195 6.92969C17.9727 8 18.1992 9.16797 18.1992 10.4336C18.1992 11.6992 17.9805 12.8711 17.543 13.9492C17.1055 15.0195 16.4883 15.9492 15.6914 16.7383C14.9023 17.5273 13.9688 18.1406 12.8906 18.5781C11.8203 19.0156 10.6523 19.2344 9.38672 19.2344ZM9.76172 15.7891C8.18359 15.7891 6.99609 15.3047 6.19922 14.3359C5.40234 13.3594 5.00391 12.0586 5.00391 10.4336C5.00391 9.39453 5.19141 8.47656 5.56641 7.67969C5.94922 6.875 6.5 6.24609 7.21875 5.79297C7.94531 5.33203 8.82422 5.10156 9.85547 5.10156C10.3711 5.10156 10.8828 5.16406 11.3906 5.28906C11.8984 5.41406 12.375 5.58984 12.8203 5.81641L12.1641 7.17578C11.7734 6.97266 11.3867 6.82031 11.0039 6.71875C10.6211 6.60938 10.2461 6.55469 9.87891 6.55469C8.88672 6.55469 8.11719 6.90234 7.57031 7.59766C7.02344 8.28516 6.75 9.23047 6.75 10.4336C6.75 11.6836 6.99609 12.6445 7.48828 13.3164C7.98828 13.9883 8.77344 14.3242 9.84375 14.3242C10.2344 14.3242 10.6523 14.2734 11.0977 14.1719C11.5508 14.0703 11.9805 13.9375 12.3867 13.7734V15.2031C12.0039 15.375 11.6094 15.5156 11.2031 15.625C10.7969 15.7344 10.3164 15.7891 9.76172 15.7891ZM9.38672 18.0391C10.4258 18.0391 11.3984 17.8516 12.3047 17.4766C13.2188 17.1016 14.0195 16.5742 14.707 15.8945C15.3945 15.207 15.9336 14.4023 16.3242 13.4805C16.7148 12.5508 16.9102 11.5352 16.9102 10.4336C16.9102 9.38672 16.7227 8.40625 16.3477 7.49219C15.9805 6.57812 15.4609 5.76953 14.7891 5.06641C14.1172 4.36328 13.3203 3.81641 12.3984 3.42578C11.4844 3.02734 10.4805 2.82812 9.38672 2.82812C8.29297 2.82812 7.28516 3.01562 6.36328 3.39062C5.44922 3.76562 4.65234 4.29688 3.97266 4.98438C3.30078 5.66406 2.77734 6.46875 2.40234 7.39844C2.03516 8.32031 1.85156 9.33203 1.85156 10.4336C1.85156 11.4805 2.03516 12.4648 2.40234 13.3867C2.76953 14.3008 3.28906 15.1094 3.96094 15.8125C4.64062 16.5078 5.4375 17.0547 6.35156 17.4531C7.27344 17.8438 8.28516 18.0391 9.38672 18.0391ZM38.0156 19H26.7891V17.3711L31.3711 12.7188C32.2227 11.8594 32.9375 11.0938 33.5156 10.4219C34.1016 9.75 34.5469 9.08984 34.8516 8.44141C35.1562 7.78516 35.3086 7.06641 35.3086 6.28516C35.3086 5.31641 35.0195 4.57812 34.4414 4.07031C33.8711 3.55469 33.1172 3.29688 32.1797 3.29688C31.3594 3.29688 30.6328 3.4375 30 3.71875C29.3672 4 28.7188 4.39844 28.0547 4.91406L27.0117 3.60156C27.4648 3.21875 27.957 2.87891 28.4883 2.58203C29.0273 2.28516 29.6016 2.05078 30.2109 1.87891C30.8281 1.70703 31.4844 1.62109 32.1797 1.62109C33.2344 1.62109 34.1445 1.80469 34.9102 2.17188C35.6758 2.53906 36.2656 3.0625 36.6797 3.74219C37.1016 4.42188 37.3125 5.23047 37.3125 6.16797C37.3125 7.07422 37.1328 7.91797 36.7734 8.69922C36.4141 9.47266 35.9102 10.2422 35.2617 11.0078C34.6133 11.7656 33.8555 12.5703 32.9883 13.4219L29.2617 17.1367V17.2188H38.0156V19ZM51.8438 10.4102C51.8438 11.8008 51.7383 13.043 51.5273 14.1367C51.3164 15.2305 50.9844 16.1562 50.5312 16.9141C50.0781 17.6719 49.4922 18.25 48.7734 18.6484C48.0547 19.0391 47.1914 19.2344 46.1836 19.2344C44.9102 19.2344 43.8555 18.8867 43.0195 18.1914C42.1914 17.4961 41.5703 16.4922 41.1562 15.1797C40.75 13.8594 40.5469 12.2695 40.5469 10.4102C40.5469 8.58203 40.7305 7.01172 41.0977 5.69922C41.4727 4.37891 42.0742 3.36719 42.9023 2.66406C43.7305 1.95312 44.8242 1.59766 46.1836 1.59766C47.4727 1.59766 48.5352 1.94922 49.3711 2.65234C50.207 3.34766 50.8281 4.35547 51.2344 5.67578C51.6406 6.98828 51.8438 8.56641 51.8438 10.4102ZM42.5039 10.4102C42.5039 12.0039 42.625 13.332 42.8672 14.3945C43.1094 15.457 43.5 16.2539 44.0391 16.7852C44.5859 17.3086 45.3008 17.5703 46.1836 17.5703C47.0664 17.5703 47.7773 17.3086 48.3164 16.7852C48.8633 16.2617 49.2578 15.4688 49.5 14.4062C49.75 13.3438 49.875 12.0117 49.875 10.4102C49.875 8.83984 49.7539 7.52734 49.5117 6.47266C49.2695 5.41016 48.8789 4.61328 48.3398 4.08203C47.8008 3.54297 47.082 3.27344 46.1836 3.27344C45.2852 3.27344 44.5664 3.54297 44.0273 4.08203C43.4883 4.61328 43.0977 5.41016 42.8555 6.47266C42.6211 7.52734 42.5039 8.83984 42.5039 10.4102ZM65.4844 19H54.2578V17.3711L58.8398 12.7188C59.6914 11.8594 60.4062 11.0938 60.9844 10.4219C61.5703 9.75 62.0156 9.08984 62.3203 8.44141C62.625 7.78516 62.7773 7.06641 62.7773 6.28516C62.7773 5.31641 62.4883 4.57812 61.9102 4.07031C61.3398 3.55469 60.5859 3.29688 59.6484 3.29688C58.8281 3.29688 58.1016 3.4375 57.4688 3.71875C56.8359 4 56.1875 4.39844 55.5234 4.91406L54.4805 3.60156C54.9336 3.21875 55.4258 2.87891 55.957 2.58203C56.4961 2.28516 57.0703 2.05078 57.6797 1.87891C58.2969 1.70703 58.9531 1.62109 59.6484 1.62109C60.7031 1.62109 61.6133 1.80469 62.3789 2.17188C63.1445 2.53906 63.7344 3.0625 64.1484 3.74219C64.5703 4.42188 64.7812 5.23047 64.7812 6.16797C64.7812 7.07422 64.6016 7.91797 64.2422 8.69922C63.8828 9.47266 63.3789 10.2422 62.7305 11.0078C62.082 11.7656 61.3242 12.5703 60.457 13.4219L56.7305 17.1367V17.2188H65.4844V19ZM78.5859 5.86328C78.5859 6.62891 78.4375 7.29297 78.1406 7.85547C77.8438 8.41797 77.4297 8.87891 76.8984 9.23828C76.3672 9.58984 75.7422 9.83594 75.0234 9.97656V10.0703C76.3828 10.2422 77.4023 10.6797 78.082 11.3828C78.7695 12.0859 79.1133 13.0078 79.1133 14.1484C79.1133 15.1406 78.8789 16.0195 78.4102 16.7852C77.9492 17.5508 77.2383 18.1523 76.2773 18.5898C75.3242 19.0195 74.1016 19.2344 72.6094 19.2344C71.7031 19.2344 70.8633 19.1602 70.0898 19.0117C69.3242 18.8711 68.5898 18.6328 67.8867 18.2969V16.4688C68.5977 16.8203 69.3711 17.0977 70.207 17.3008C71.043 17.4961 71.8516 17.5938 72.6328 17.5938C74.1953 17.5938 75.3242 17.2852 76.0195 16.668C76.7148 16.043 77.0625 15.1914 77.0625 14.1133C77.0625 13.3711 76.8672 12.7734 76.4766 12.3203C76.0938 11.8594 75.5391 11.5234 74.8125 11.3125C74.0938 11.0938 73.2266 10.9844 72.2109 10.9844H70.5V9.32031H72.2227C73.1523 9.32031 73.9414 9.18359 74.5898 8.91016C75.2383 8.63672 75.7305 8.25391 76.0664 7.76172C76.4102 7.26172 76.582 6.67188 76.582 5.99219C76.582 5.125 76.293 4.45703 75.7148 3.98828C75.1367 3.51172 74.3516 3.27344 73.3594 3.27344C72.75 3.27344 72.1953 3.33594 71.6953 3.46094C71.1953 3.58594 70.7266 3.75781 70.2891 3.97656C69.8516 4.19531 69.4141 4.44922 68.9766 4.73828L67.9922 3.40234C68.6172 2.91797 69.3789 2.5 70.2773 2.14844C71.1758 1.79688 72.1953 1.62109 73.3359 1.62109C75.0859 1.62109 76.3984 2.01953 77.2734 2.81641C78.1484 3.61328 78.5859 4.62891 78.5859 5.86328ZM94.3828 19H92.3789V3.625H86.9883V1.86719H99.75V3.625H94.3828V19ZM113.121 12.5547C113.121 13.6094 112.984 14.5508 112.711 15.3789C112.438 16.207 112.043 16.9062 111.527 17.4766C111.012 18.0469 110.387 18.4844 109.652 18.7891C108.926 19.0859 108.102 19.2344 107.18 19.2344C106.32 19.2344 105.531 19.0859 104.812 18.7891C104.102 18.4844 103.484 18.0469 102.961 17.4766C102.445 16.9062 102.043 16.207 101.754 15.3789C101.473 14.5508 101.332 13.6094 101.332 12.5547C101.332 11.1484 101.57 9.95312 102.047 8.96875C102.523 7.97656 103.203 7.22266 104.086 6.70703C104.977 6.18359 106.035 5.92188 107.262 5.92188C108.434 5.92188 109.457 6.18359 110.332 6.70703C111.215 7.23047 111.898 7.98828 112.383 8.98047C112.875 9.96484 113.121 11.1562 113.121 12.5547ZM103.348 12.5547C103.348 13.5859 103.484 14.4805 103.758 15.2383C104.031 15.9961 104.453 16.582 105.023 16.9961C105.594 17.4102 106.328 17.6172 107.227 17.6172C108.117 17.6172 108.848 17.4102 109.418 16.9961C109.996 16.582 110.422 15.9961 110.695 15.2383C110.969 14.4805 111.105 13.5859 111.105 12.5547C111.105 11.5312 110.969 10.6484 110.695 9.90625C110.422 9.15625 110 8.57812 109.43 8.17188C108.859 7.76562 108.121 7.5625 107.215 7.5625C105.879 7.5625 104.898 8.00391 104.273 8.88672C103.656 9.76953 103.348 10.9922 103.348 12.5547ZM130.43 5.92188C131.844 5.92188 132.91 6.29297 133.629 7.03516C134.348 7.76953 134.707 8.95312 134.707 10.5859V19H132.785V10.6797C132.785 9.64062 132.559 8.86328 132.105 8.34766C131.66 7.82422 130.996 7.5625 130.113 7.5625C128.871 7.5625 127.969 7.92188 127.406 8.64062C126.844 9.35938 126.562 10.418 126.562 11.8164V19H124.629V10.6797C124.629 9.98438 124.527 9.40625 124.324 8.94531C124.129 8.48438 123.832 8.14062 123.434 7.91406C123.043 7.67969 122.547 7.5625 121.945 7.5625C121.094 7.5625 120.41 7.73828 119.895 8.08984C119.379 8.44141 119.004 8.96484 118.77 9.66016C118.543 10.3477 118.43 11.1953 118.43 12.2031V19H116.484V6.15625H118.055L118.348 7.97266H118.453C118.711 7.52734 119.035 7.15234 119.426 6.84766C119.816 6.54297 120.254 6.3125 120.738 6.15625C121.223 6 121.738 5.92188 122.285 5.92188C123.262 5.92188 124.078 6.10547 124.734 6.47266C125.398 6.83203 125.879 7.38281 126.176 8.125H126.281C126.703 7.38281 127.281 6.83203 128.016 6.47266C128.75 6.10547 129.555 5.92188 130.43 5.92188ZM143.508 5.94531C145.039 5.94531 146.176 6.28906 146.918 6.97656C147.66 7.66406 148.031 8.76172 148.031 10.2695V19H146.613L146.238 17.1016H146.145C145.785 17.5703 145.41 17.9648 145.02 18.2852C144.629 18.5977 144.176 18.8359 143.66 19C143.152 19.1562 142.527 19.2344 141.785 19.2344C141.004 19.2344 140.309 19.0977 139.699 18.8242C139.098 18.5508 138.621 18.1367 138.27 17.582C137.926 17.0273 137.754 16.3242 137.754 15.4727C137.754 14.1914 138.262 13.207 139.277 12.5195C140.293 11.832 141.84 11.457 143.918 11.3945L146.133 11.3008V10.5156C146.133 9.40625 145.895 8.62891 145.418 8.18359C144.941 7.73828 144.27 7.51562 143.402 7.51562C142.73 7.51562 142.09 7.61328 141.48 7.80859C140.871 8.00391 140.293 8.23438 139.746 8.5L139.148 7.02344C139.727 6.72656 140.391 6.47266 141.141 6.26172C141.891 6.05078 142.68 5.94531 143.508 5.94531ZM146.109 12.6719L144.152 12.7539C142.551 12.8164 141.422 13.0781 140.766 13.5391C140.109 14 139.781 14.6523 139.781 15.4961C139.781 16.2305 140.004 16.7734 140.449 17.125C140.895 17.4766 141.484 17.6523 142.219 17.6523C143.359 17.6523 144.293 17.3359 145.02 16.7031C145.746 16.0703 146.109 15.1211 146.109 13.8555V12.6719ZM156.188 17.6406C156.508 17.6406 156.836 17.6133 157.172 17.5586C157.508 17.5039 157.781 17.4375 157.992 17.3594V18.8711C157.766 18.9727 157.449 19.0586 157.043 19.1289C156.645 19.1992 156.254 19.2344 155.871 19.2344C155.191 19.2344 154.574 19.1172 154.02 18.8828C153.465 18.6406 153.02 18.2344 152.684 17.6641C152.355 17.0938 152.191 16.3047 152.191 15.2969V7.67969H150.363V6.73047L152.203 5.96875L152.977 3.17969H154.148V6.15625H157.91V7.67969H154.148V15.2383C154.148 16.043 154.332 16.6445 154.699 17.043C155.074 17.4414 155.57 17.6406 156.188 17.6406ZM162.539 6.15625V19H160.594V6.15625H162.539ZM161.59 1.35156C161.91 1.35156 162.184 1.45703 162.41 1.66797C162.645 1.87109 162.762 2.19141 162.762 2.62891C162.762 3.05859 162.645 3.37891 162.41 3.58984C162.184 3.80078 161.91 3.90625 161.59 3.90625C161.254 3.90625 160.973 3.80078 160.746 3.58984C160.527 3.37891 160.418 3.05859 160.418 2.62891C160.418 2.19141 160.527 1.87109 160.746 1.66797C160.973 1.45703 161.254 1.35156 161.59 1.35156ZM177.738 12.5547C177.738 13.6094 177.602 14.5508 177.328 15.3789C177.055 16.207 176.66 16.9062 176.145 17.4766C175.629 18.0469 175.004 18.4844 174.27 18.7891C173.543 19.0859 172.719 19.2344 171.797 19.2344C170.938 19.2344 170.148 19.0859 169.43 18.7891C168.719 18.4844 168.102 18.0469 167.578 17.4766C167.062 16.9062 166.66 16.207 166.371 15.3789C166.09 14.5508 165.949 13.6094 165.949 12.5547C165.949 11.1484 166.188 9.95312 166.664 8.96875C167.141 7.97656 167.82 7.22266 168.703 6.70703C169.594 6.18359 170.652 5.92188 171.879 5.92188C173.051 5.92188 174.074 6.18359 174.949 6.70703C175.832 7.23047 176.516 7.98828 177 8.98047C177.492 9.96484 177.738 11.1562 177.738 12.5547ZM167.965 12.5547C167.965 13.5859 168.102 14.4805 168.375 15.2383C168.648 15.9961 169.07 16.582 169.641 16.9961C170.211 17.4102 170.945 17.6172 171.844 17.6172C172.734 17.6172 173.465 17.4102 174.035 16.9961C174.613 16.582 175.039 15.9961 175.312 15.2383C175.586 14.4805 175.723 13.5859 175.723 12.5547C175.723 11.5312 175.586 10.6484 175.312 9.90625C175.039 9.15625 174.617 8.57812 174.047 8.17188C173.477 7.76562 172.738 7.5625 171.832 7.5625C170.496 7.5625 169.516 8.00391 168.891 8.88672C168.273 9.76953 167.965 10.9922 167.965 12.5547ZM187.184 5.92188C188.707 5.92188 189.859 6.29688 190.641 7.04688C191.422 7.78906 191.812 8.98438 191.812 10.6328V19H189.891V10.7617C189.891 9.69141 189.645 8.89062 189.152 8.35938C188.668 7.82812 187.922 7.5625 186.914 7.5625C185.492 7.5625 184.492 7.96484 183.914 8.76953C183.336 9.57422 183.047 10.7422 183.047 12.2734V19H181.102V6.15625H182.672L182.965 8.00781H183.07C183.344 7.55469 183.691 7.17578 184.113 6.87109C184.535 6.55859 185.008 6.32422 185.531 6.16797C186.055 6.00391 186.605 5.92188 187.184 5.92188ZM210.363 15.4844C210.363 16.3047 210.156 16.9961 209.742 17.5586C209.336 18.1133 208.75 18.5312 207.984 18.8125C207.227 19.0938 206.32 19.2344 205.266 19.2344C204.367 19.2344 203.59 19.1641 202.934 19.0234C202.277 18.8828 201.703 18.6836 201.211 18.4258V16.6328C201.734 16.8906 202.359 17.125 203.086 17.3359C203.812 17.5469 204.555 17.6523 205.312 17.6523C206.422 17.6523 207.227 17.4727 207.727 17.1133C208.227 16.7539 208.477 16.2656 208.477 15.6484C208.477 15.2969 208.375 14.9883 208.172 14.7227C207.977 14.4492 207.645 14.1875 207.176 13.9375C206.707 13.6797 206.059 13.3984 205.23 13.0938C204.41 12.7812 203.699 12.4727 203.098 12.168C202.504 11.8555 202.043 11.4766 201.715 11.0312C201.395 10.5859 201.234 10.0078 201.234 9.29688C201.234 8.21094 201.672 7.37891 202.547 6.80078C203.43 6.21484 204.586 5.92188 206.016 5.92188C206.789 5.92188 207.512 6 208.184 6.15625C208.863 6.30469 209.496 6.50781 210.082 6.76562L209.426 8.32422C208.895 8.09766 208.328 7.90625 207.727 7.75C207.125 7.59375 206.512 7.51562 205.887 7.51562C204.988 7.51562 204.297 7.66406 203.812 7.96094C203.336 8.25781 203.098 8.66406 203.098 9.17969C203.098 9.57812 203.207 9.90625 203.426 10.1641C203.652 10.4219 204.012 10.6641 204.504 10.8906C204.996 11.1172 205.645 11.3828 206.449 11.6875C207.254 11.9844 207.949 12.293 208.535 12.6133C209.121 12.9258 209.57 13.3086 209.883 13.7617C210.203 14.207 210.363 14.7812 210.363 15.4844ZM224.566 12.5547C224.566 13.6094 224.43 14.5508 224.156 15.3789C223.883 16.207 223.488 16.9062 222.973 17.4766C222.457 18.0469 221.832 18.4844 221.098 18.7891C220.371 19.0859 219.547 19.2344 218.625 19.2344C217.766 19.2344 216.977 19.0859 216.258 18.7891C215.547 18.4844 214.93 18.0469 214.406 17.4766C213.891 16.9062 213.488 16.207 213.199 15.3789C212.918 14.5508 212.777 13.6094 212.777 12.5547C212.777 11.1484 213.016 9.95312 213.492 8.96875C213.969 7.97656 214.648 7.22266 215.531 6.70703C216.422 6.18359 217.48 5.92188 218.707 5.92188C219.879 5.92188 220.902 6.18359 221.777 6.70703C222.66 7.23047 223.344 7.98828 223.828 8.98047C224.32 9.96484 224.566 11.1562 224.566 12.5547ZM214.793 12.5547C214.793 13.5859 214.93 14.4805 215.203 15.2383C215.477 15.9961 215.898 16.582 216.469 16.9961C217.039 17.4102 217.773 17.6172 218.672 17.6172C219.562 17.6172 220.293 17.4102 220.863 16.9961C221.441 16.582 221.867 15.9961 222.141 15.2383C222.414 14.4805 222.551 13.5859 222.551 12.5547C222.551 11.5312 222.414 10.6484 222.141 9.90625C221.867 9.15625 221.445 8.57812 220.875 8.17188C220.305 7.76562 219.566 7.5625 218.66 7.5625C217.324 7.5625 216.344 8.00391 215.719 8.88672C215.102 9.76953 214.793 10.9922 214.793 12.5547ZM229.887 19H227.93V0.765625H229.887V19ZM244.605 6.15625V19H243.012L242.73 17.1953H242.625C242.359 17.6406 242.016 18.0156 241.594 18.3203C241.172 18.625 240.695 18.8516 240.164 19C239.641 19.1562 239.082 19.2344 238.488 19.2344C237.473 19.2344 236.621 19.0703 235.934 18.7422C235.246 18.4141 234.727 17.9062 234.375 17.2188C234.031 16.5312 233.859 15.6484 233.859 14.5703V6.15625H235.828V14.4297C235.828 15.5 236.07 16.3008 236.555 16.832C237.039 17.3555 237.777 17.6172 238.77 17.6172C239.723 17.6172 240.48 17.4375 241.043 17.0781C241.613 16.7188 242.023 16.1914 242.273 15.4961C242.523 14.793 242.648 13.9336 242.648 12.918V6.15625H244.605ZM252.867 17.6406C253.188 17.6406 253.516 17.6133 253.852 17.5586C254.188 17.5039 254.461 17.4375 254.672 17.3594V18.8711C254.445 18.9727 254.129 19.0586 253.723 19.1289C253.324 19.1992 252.934 19.2344 252.551 19.2344C251.871 19.2344 251.254 19.1172 250.699 18.8828C250.145 18.6406 249.699 18.2344 249.363 17.6641C249.035 17.0938 248.871 16.3047 248.871 15.2969V7.67969H247.043V6.73047L248.883 5.96875L249.656 3.17969H250.828V6.15625H254.59V7.67969H250.828V15.2383C250.828 16.043 251.012 16.6445 251.379 17.043C251.754 17.4414 252.25 17.6406 252.867 17.6406ZM259.219 6.15625V19H257.273V6.15625H259.219ZM258.27 1.35156C258.59 1.35156 258.863 1.45703 259.09 1.66797C259.324 1.87109 259.441 2.19141 259.441 2.62891C259.441 3.05859 259.324 3.37891 259.09 3.58984C258.863 3.80078 258.59 3.90625 258.27 3.90625C257.934 3.90625 257.652 3.80078 257.426 3.58984C257.207 3.37891 257.098 3.05859 257.098 2.62891C257.098 2.19141 257.207 1.87109 257.426 1.66797C257.652 1.45703 257.934 1.35156 258.27 1.35156ZM274.418 12.5547C274.418 13.6094 274.281 14.5508 274.008 15.3789C273.734 16.207 273.34 16.9062 272.824 17.4766C272.309 18.0469 271.684 18.4844 270.949 18.7891C270.223 19.0859 269.398 19.2344 268.477 19.2344C267.617 19.2344 266.828 19.0859 266.109 18.7891C265.398 18.4844 264.781 18.0469 264.258 17.4766C263.742 16.9062 263.34 16.207 263.051 15.3789C262.77 14.5508 262.629 13.6094 262.629 12.5547C262.629 11.1484 262.867 9.95312 263.344 8.96875C263.82 7.97656 264.5 7.22266 265.383 6.70703C266.273 6.18359 267.332 5.92188 268.559 5.92188C269.73 5.92188 270.754 6.18359 271.629 6.70703C272.512 7.23047 273.195 7.98828 273.68 8.98047C274.172 9.96484 274.418 11.1562 274.418 12.5547ZM264.645 12.5547C264.645 13.5859 264.781 14.4805 265.055 15.2383C265.328 15.9961 265.75 16.582 266.32 16.9961C266.891 17.4102 267.625 17.6172 268.523 17.6172C269.414 17.6172 270.145 17.4102 270.715 16.9961C271.293 16.582 271.719 15.9961 271.992 15.2383C272.266 14.4805 272.402 13.5859 272.402 12.5547C272.402 11.5312 272.266 10.6484 271.992 9.90625C271.719 9.15625 271.297 8.57812 270.727 8.17188C270.156 7.76562 269.418 7.5625 268.512 7.5625C267.176 7.5625 266.195 8.00391 265.57 8.88672C264.953 9.76953 264.645 10.9922 264.645 12.5547ZM283.863 5.92188C285.387 5.92188 286.539 6.29688 287.32 7.04688C288.102 7.78906 288.492 8.98438 288.492 10.6328V19H286.57V10.7617C286.57 9.69141 286.324 8.89062 285.832 8.35938C285.348 7.82812 284.602 7.5625 283.594 7.5625C282.172 7.5625 281.172 7.96484 280.594 8.76953C280.016 9.57422 279.727 10.7422 279.727 12.2734V19H277.781V6.15625H279.352L279.645 8.00781H279.75C280.023 7.55469 280.371 7.17578 280.793 6.87109C281.215 6.55859 281.688 6.32422 282.211 6.16797C282.734 6.00391 283.285 5.92188 283.863 5.92188ZM300.809 15.4844C300.809 16.3047 300.602 16.9961 300.188 17.5586C299.781 18.1133 299.195 18.5312 298.43 18.8125C297.672 19.0938 296.766 19.2344 295.711 19.2344C294.812 19.2344 294.035 19.1641 293.379 19.0234C292.723 18.8828 292.148 18.6836 291.656 18.4258V16.6328C292.18 16.8906 292.805 17.125 293.531 17.3359C294.258 17.5469 295 17.6523 295.758 17.6523C296.867 17.6523 297.672 17.4727 298.172 17.1133C298.672 16.7539 298.922 16.2656 298.922 15.6484C298.922 15.2969 298.82 14.9883 298.617 14.7227C298.422 14.4492 298.09 14.1875 297.621 13.9375C297.152 13.6797 296.504 13.3984 295.676 13.0938C294.855 12.7812 294.145 12.4727 293.543 12.168C292.949 11.8555 292.488 11.4766 292.16 11.0312C291.84 10.5859 291.68 10.0078 291.68 9.29688C291.68 8.21094 292.117 7.37891 292.992 6.80078C293.875 6.21484 295.031 5.92188 296.461 5.92188C297.234 5.92188 297.957 6 298.629 6.15625C299.309 6.30469 299.941 6.50781 300.527 6.76562L299.871 8.32422C299.34 8.09766 298.773 7.90625 298.172 7.75C297.57 7.59375 296.957 7.51562 296.332 7.51562C295.434 7.51562 294.742 7.66406 294.258 7.96094C293.781 8.25781 293.543 8.66406 293.543 9.17969C293.543 9.57812 293.652 9.90625 293.871 10.1641C294.098 10.4219 294.457 10.6641 294.949 10.8906C295.441 11.1172 296.09 11.3828 296.895 11.6875C297.699 11.9844 298.395 12.293 298.98 12.6133C299.566 12.9258 300.016 13.3086 300.328 13.7617C300.648 14.207 300.809 14.7812 300.809 15.4844ZM303.645 17.7812C303.645 17.2344 303.777 16.8477 304.043 16.6211C304.309 16.3867 304.633 16.2695 305.016 16.2695C305.414 16.2695 305.75 16.3867 306.023 16.6211C306.297 16.8477 306.434 17.2344 306.434 17.7812C306.434 18.3203 306.297 18.7148 306.023 18.9648C305.75 19.207 305.414 19.3281 305.016 19.3281C304.633 19.3281 304.309 19.207 304.043 18.9648C303.777 18.7148 303.645 18.3203 303.645 17.7812ZM333.75 19L331.641 13.5625H324.773L322.676 19H320.66L327.363 1.79688H329.156L335.812 19H333.75ZM331.043 11.793L329.039 6.39062C328.992 6.25 328.914 6.01953 328.805 5.69922C328.703 5.37891 328.598 5.04688 328.488 4.70312C328.379 4.35938 328.289 4.08203 328.219 3.87109C328.141 4.19141 328.055 4.51172 327.961 4.83203C327.875 5.14453 327.789 5.4375 327.703 5.71094C327.617 5.97656 327.543 6.20312 327.48 6.39062L325.441 11.793H331.043ZM339.855 19H337.898V0.765625H339.855V19ZM345.926 19H343.969V0.765625H345.926V19ZM362.109 5.92188C362.367 5.92188 362.637 5.9375 362.918 5.96875C363.199 5.99219 363.449 6.02734 363.668 6.07422L363.422 7.87891C363.211 7.82422 362.977 7.78125 362.719 7.75C362.461 7.71875 362.219 7.70312 361.992 7.70312C361.477 7.70312 360.988 7.80859 360.527 8.01953C360.074 8.22266 359.676 8.51953 359.332 8.91016C358.988 9.29297 358.719 9.75781 358.523 10.3047C358.328 10.8438 358.23 11.4453 358.23 12.1094V19H356.273V6.15625H357.891L358.102 8.52344H358.184C358.449 8.04688 358.77 7.61328 359.145 7.22266C359.52 6.82422 359.953 6.50781 360.445 6.27344C360.945 6.03906 361.5 5.92188 362.109 5.92188ZM368.039 6.15625V19H366.094V6.15625H368.039ZM367.09 1.35156C367.41 1.35156 367.684 1.45703 367.91 1.66797C368.145 1.87109 368.262 2.19141 368.262 2.62891C368.262 3.05859 368.145 3.37891 367.91 3.58984C367.684 3.80078 367.41 3.90625 367.09 3.90625C366.754 3.90625 366.473 3.80078 366.246 3.58984C366.027 3.37891 365.918 3.05859 365.918 2.62891C365.918 2.19141 366.027 1.87109 366.246 1.66797C366.473 1.45703 366.754 1.35156 367.09 1.35156ZM375.75 24.7656C374.062 24.7656 372.762 24.4492 371.848 23.8164C370.934 23.1914 370.477 22.3125 370.477 21.1797C370.477 20.375 370.73 19.6875 371.238 19.1172C371.754 18.5469 372.465 18.168 373.371 17.9805C373.035 17.8242 372.746 17.5898 372.504 17.2773C372.27 16.9648 372.152 16.6055 372.152 16.1992C372.152 15.7305 372.281 15.3203 372.539 14.9688C372.805 14.6094 373.207 14.2656 373.746 13.9375C373.074 13.6641 372.527 13.2031 372.105 12.5547C371.691 11.8984 371.484 11.1367 371.484 10.2695C371.484 9.34766 371.676 8.5625 372.059 7.91406C372.441 7.25781 372.996 6.75781 373.723 6.41406C374.449 6.07031 375.328 5.89844 376.359 5.89844C376.586 5.89844 376.812 5.91016 377.039 5.93359C377.273 5.94922 377.496 5.97656 377.707 6.01562C377.918 6.04688 378.102 6.08594 378.258 6.13281H382.664V7.38672L380.297 7.67969C380.531 7.98438 380.727 8.35156 380.883 8.78125C381.039 9.21094 381.117 9.6875 381.117 10.2109C381.117 11.4922 380.684 12.5117 379.816 13.2695C378.949 14.0195 377.758 14.3945 376.242 14.3945C375.883 14.3945 375.516 14.3633 375.141 14.3008C374.758 14.5117 374.465 14.7461 374.262 15.0039C374.066 15.2617 373.969 15.5586 373.969 15.8945C373.969 16.1445 374.043 16.3438 374.191 16.4922C374.348 16.6406 374.57 16.75 374.859 16.8203C375.148 16.8828 375.496 16.9141 375.902 16.9141H378.164C379.562 16.9141 380.633 17.207 381.375 17.793C382.125 18.3789 382.5 19.2344 382.5 20.3594C382.5 21.7812 381.922 22.8711 380.766 23.6289C379.609 24.3867 377.938 24.7656 375.75 24.7656ZM375.809 23.2422C376.871 23.2422 377.75 23.1328 378.445 22.9141C379.148 22.7031 379.672 22.3945 380.016 21.9883C380.367 21.5898 380.543 21.1133 380.543 20.5586C380.543 20.043 380.426 19.6523 380.191 19.3867C379.957 19.1289 379.613 18.957 379.16 18.8711C378.707 18.7773 378.152 18.7305 377.496 18.7305H375.27C374.691 18.7305 374.188 18.8203 373.758 19C373.328 19.1797 372.996 19.4453 372.762 19.7969C372.535 20.1484 372.422 20.5859 372.422 21.1094C372.422 21.8047 372.715 22.332 373.301 22.6914C373.887 23.0586 374.723 23.2422 375.809 23.2422ZM376.312 12.9766C377.242 12.9766 377.941 12.7422 378.41 12.2734C378.879 11.8047 379.113 11.1211 379.113 10.2227C379.113 9.26172 378.875 8.54297 378.398 8.06641C377.922 7.58203 377.219 7.33984 376.289 7.33984C375.398 7.33984 374.711 7.58984 374.227 8.08984C373.75 8.58203 373.512 9.30469 373.512 10.2578C373.512 11.1328 373.754 11.8047 374.238 12.2734C374.723 12.7422 375.414 12.9766 376.312 12.9766ZM387.141 0.765625V6.21484C387.141 6.52734 387.133 6.84375 387.117 7.16406C387.102 7.47656 387.074 7.76562 387.035 8.03125H387.164C387.43 7.57812 387.766 7.19922 388.172 6.89453C388.586 6.58203 389.055 6.34766 389.578 6.19141C390.102 6.02734 390.656 5.94531 391.242 5.94531C392.273 5.94531 393.133 6.10938 393.82 6.4375C394.516 6.76562 395.035 7.27344 395.379 7.96094C395.73 8.64844 395.906 9.53906 395.906 10.6328V19H393.984V10.7617C393.984 9.69141 393.738 8.89062 393.246 8.35938C392.762 7.82812 392.016 7.5625 391.008 7.5625C390.055 7.5625 389.293 7.74609 388.723 8.11328C388.16 8.47266 387.754 9.00391 387.504 9.70703C387.262 10.4102 387.141 11.2695 387.141 12.2852V19H385.195V0.765625H387.141ZM404.062 17.6406C404.383 17.6406 404.711 17.6133 405.047 17.5586C405.383 17.5039 405.656 17.4375 405.867 17.3594V18.8711C405.641 18.9727 405.324 19.0586 404.918 19.1289C404.52 19.1992 404.129 19.2344 403.746 19.2344C403.066 19.2344 402.449 19.1172 401.895 18.8828C401.34 18.6406 400.895 18.2344 400.559 17.6641C400.23 17.0938 400.066 16.3047 400.066 15.2969V7.67969H398.238V6.73047L400.078 5.96875L400.852 3.17969H402.023V6.15625H405.785V7.67969H402.023V15.2383C402.023 16.043 402.207 16.6445 402.574 17.043C402.949 17.4414 403.445 17.6406 404.062 17.6406ZM416.777 15.4844C416.777 16.3047 416.57 16.9961 416.156 17.5586C415.75 18.1133 415.164 18.5312 414.398 18.8125C413.641 19.0938 412.734 19.2344 411.68 19.2344C410.781 19.2344 410.004 19.1641 409.348 19.0234C408.691 18.8828 408.117 18.6836 407.625 18.4258V16.6328C408.148 16.8906 408.773 17.125 409.5 17.3359C410.227 17.5469 410.969 17.6523 411.727 17.6523C412.836 17.6523 413.641 17.4727 414.141 17.1133C414.641 16.7539 414.891 16.2656 414.891 15.6484C414.891 15.2969 414.789 14.9883 414.586 14.7227C414.391 14.4492 414.059 14.1875 413.59 13.9375C413.121 13.6797 412.473 13.3984 411.645 13.0938C410.824 12.7812 410.113 12.4727 409.512 12.168C408.918 11.8555 408.457 11.4766 408.129 11.0312C407.809 10.5859 407.648 10.0078 407.648 9.29688C407.648 8.21094 408.086 7.37891 408.961 6.80078C409.844 6.21484 411 5.92188 412.43 5.92188C413.203 5.92188 413.926 6 414.598 6.15625C415.277 6.30469 415.91 6.50781 416.496 6.76562L415.84 8.32422C415.309 8.09766 414.742 7.90625 414.141 7.75C413.539 7.59375 412.926 7.51562 412.301 7.51562C411.402 7.51562 410.711 7.66406 410.227 7.96094C409.75 8.25781 409.512 8.66406 409.512 9.17969C409.512 9.57812 409.621 9.90625 409.84 10.1641C410.066 10.4219 410.426 10.6641 410.918 10.8906C411.41 11.1172 412.059 11.3828 412.863 11.6875C413.668 11.9844 414.363 12.293 414.949 12.6133C415.535 12.9258 415.984 13.3086 416.297 13.7617C416.617 14.207 416.777 14.7812 416.777 15.4844ZM431.977 5.92188C432.234 5.92188 432.504 5.9375 432.785 5.96875C433.066 5.99219 433.316 6.02734 433.535 6.07422L433.289 7.87891C433.078 7.82422 432.844 7.78125 432.586 7.75C432.328 7.71875 432.086 7.70312 431.859 7.70312C431.344 7.70312 430.855 7.80859 430.395 8.01953C429.941 8.22266 429.543 8.51953 429.199 8.91016C428.855 9.29297 428.586 9.75781 428.391 10.3047C428.195 10.8438 428.098 11.4453 428.098 12.1094V19H426.141V6.15625H427.758L427.969 8.52344H428.051C428.316 8.04688 428.637 7.61328 429.012 7.22266C429.387 6.82422 429.82 6.50781 430.312 6.27344C430.812 6.03906 431.367 5.92188 431.977 5.92188ZM440.906 5.92188C442 5.92188 442.938 6.16406 443.719 6.64844C444.5 7.13281 445.098 7.8125 445.512 8.6875C445.926 9.55469 446.133 10.5703 446.133 11.7344V12.9414H437.262C437.285 14.4492 437.66 15.5977 438.387 16.3867C439.113 17.1758 440.137 17.5703 441.457 17.5703C442.27 17.5703 442.988 17.4961 443.613 17.3477C444.238 17.1992 444.887 16.9805 445.559 16.6914V18.4023C444.91 18.6914 444.266 18.9023 443.625 19.0352C442.992 19.168 442.242 19.2344 441.375 19.2344C440.141 19.2344 439.062 18.9844 438.141 18.4844C437.227 17.9766 436.516 17.2344 436.008 16.2578C435.5 15.2812 435.246 14.0859 435.246 12.6719C435.246 11.2891 435.477 10.0938 435.938 9.08594C436.406 8.07031 437.062 7.28906 437.906 6.74219C438.758 6.19531 439.758 5.92188 440.906 5.92188ZM440.883 7.51562C439.844 7.51562 439.016 7.85547 438.398 8.53516C437.781 9.21484 437.414 10.1641 437.297 11.3828H444.094C444.086 10.6172 443.965 9.94531 443.73 9.36719C443.504 8.78125 443.156 8.32812 442.688 8.00781C442.219 7.67969 441.617 7.51562 440.883 7.51562ZM457.746 15.4844C457.746 16.3047 457.539 16.9961 457.125 17.5586C456.719 18.1133 456.133 18.5312 455.367 18.8125C454.609 19.0938 453.703 19.2344 452.648 19.2344C451.75 19.2344 450.973 19.1641 450.316 19.0234C449.66 18.8828 449.086 18.6836 448.594 18.4258V16.6328C449.117 16.8906 449.742 17.125 450.469 17.3359C451.195 17.5469 451.938 17.6523 452.695 17.6523C453.805 17.6523 454.609 17.4727 455.109 17.1133C455.609 16.7539 455.859 16.2656 455.859 15.6484C455.859 15.2969 455.758 14.9883 455.555 14.7227C455.359 14.4492 455.027 14.1875 454.559 13.9375C454.09 13.6797 453.441 13.3984 452.613 13.0938C451.793 12.7812 451.082 12.4727 450.48 12.168C449.887 11.8555 449.426 11.4766 449.098 11.0312C448.777 10.5859 448.617 10.0078 448.617 9.29688C448.617 8.21094 449.055 7.37891 449.93 6.80078C450.812 6.21484 451.969 5.92188 453.398 5.92188C454.172 5.92188 454.895 6 455.566 6.15625C456.246 6.30469 456.879 6.50781 457.465 6.76562L456.809 8.32422C456.277 8.09766 455.711 7.90625 455.109 7.75C454.508 7.59375 453.895 7.51562 453.27 7.51562C452.371 7.51562 451.68 7.66406 451.195 7.96094C450.719 8.25781 450.48 8.66406 450.48 9.17969C450.48 9.57812 450.59 9.90625 450.809 10.1641C451.035 10.4219 451.395 10.6641 451.887 10.8906C452.379 11.1172 453.027 11.3828 453.832 11.6875C454.637 11.9844 455.332 12.293 455.918 12.6133C456.504 12.9258 456.953 13.3086 457.266 13.7617C457.586 14.207 457.746 14.7812 457.746 15.4844ZM465.82 5.92188C466.914 5.92188 467.852 6.16406 468.633 6.64844C469.414 7.13281 470.012 7.8125 470.426 8.6875C470.84 9.55469 471.047 10.5703 471.047 11.7344V12.9414H462.176C462.199 14.4492 462.574 15.5977 463.301 16.3867C464.027 17.1758 465.051 17.5703 466.371 17.5703C467.184 17.5703 467.902 17.4961 468.527 17.3477C469.152 17.1992 469.801 16.9805 470.473 16.6914V18.4023C469.824 18.6914 469.18 18.9023 468.539 19.0352C467.906 19.168 467.156 19.2344 466.289 19.2344C465.055 19.2344 463.977 18.9844 463.055 18.4844C462.141 17.9766 461.43 17.2344 460.922 16.2578C460.414 15.2812 460.16 14.0859 460.16 12.6719C460.16 11.2891 460.391 10.0938 460.852 9.08594C461.32 8.07031 461.977 7.28906 462.82 6.74219C463.672 6.19531 464.672 5.92188 465.82 5.92188ZM465.797 7.51562C464.758 7.51562 463.93 7.85547 463.312 8.53516C462.695 9.21484 462.328 10.1641 462.211 11.3828H469.008C469 10.6172 468.879 9.94531 468.645 9.36719C468.418 8.78125 468.07 8.32812 467.602 8.00781C467.133 7.67969 466.531 7.51562 465.797 7.51562ZM480.188 5.92188C480.445 5.92188 480.715 5.9375 480.996 5.96875C481.277 5.99219 481.527 6.02734 481.746 6.07422L481.5 7.87891C481.289 7.82422 481.055 7.78125 480.797 7.75C480.539 7.71875 480.297 7.70312 480.07 7.70312C479.555 7.70312 479.066 7.80859 478.605 8.01953C478.152 8.22266 477.754 8.51953 477.41 8.91016C477.066 9.29297 476.797 9.75781 476.602 10.3047C476.406 10.8438 476.309 11.4453 476.309 12.1094V19H474.352V6.15625H475.969L476.18 8.52344H476.262C476.527 8.04688 476.848 7.61328 477.223 7.22266C477.598 6.82422 478.031 6.50781 478.523 6.27344C479.023 6.03906 479.578 5.92188 480.188 5.92188ZM486.996 19L482.121 6.15625H484.207L487.031 13.9258C487.227 14.457 487.426 15.043 487.629 15.6836C487.832 16.3242 487.973 16.8398 488.051 17.2305H488.133C488.227 16.8398 488.383 16.3242 488.602 15.6836C488.82 15.0352 489.02 14.4492 489.199 13.9258L492.023 6.15625H494.109L489.223 19H486.996ZM501.117 5.92188C502.211 5.92188 503.148 6.16406 503.93 6.64844C504.711 7.13281 505.309 7.8125 505.723 8.6875C506.137 9.55469 506.344 10.5703 506.344 11.7344V12.9414H497.473C497.496 14.4492 497.871 15.5977 498.598 16.3867C499.324 17.1758 500.348 17.5703 501.668 17.5703C502.48 17.5703 503.199 17.4961 503.824 17.3477C504.449 17.1992 505.098 16.9805 505.77 16.6914V18.4023C505.121 18.6914 504.477 18.9023 503.836 19.0352C503.203 19.168 502.453 19.2344 501.586 19.2344C500.352 19.2344 499.273 18.9844 498.352 18.4844C497.438 17.9766 496.727 17.2344 496.219 16.2578C495.711 15.2812 495.457 14.0859 495.457 12.6719C495.457 11.2891 495.688 10.0938 496.148 9.08594C496.617 8.07031 497.273 7.28906 498.117 6.74219C498.969 6.19531 499.969 5.92188 501.117 5.92188ZM501.094 7.51562C500.055 7.51562 499.227 7.85547 498.609 8.53516C497.992 9.21484 497.625 10.1641 497.508 11.3828H504.305C504.297 10.6172 504.176 9.94531 503.941 9.36719C503.715 8.78125 503.367 8.32812 502.898 8.00781C502.43 7.67969 501.828 7.51562 501.094 7.51562ZM514.219 19.2344C512.594 19.2344 511.305 18.6797 510.352 17.5703C509.406 16.4609 508.934 14.8125 508.934 12.625C508.934 10.4141 509.418 8.74609 510.387 7.62109C511.355 6.48828 512.645 5.92188 514.254 5.92188C514.934 5.92188 515.527 6.01172 516.035 6.19141C516.543 6.37109 516.98 6.61328 517.348 6.91797C517.715 7.21484 518.023 7.55469 518.273 7.9375H518.414C518.383 7.69531 518.352 7.36328 518.32 6.94141C518.289 6.51953 518.273 6.17578 518.273 5.91016V0.765625H520.219V19H518.648L518.355 17.1719H518.273C518.031 17.5547 517.723 17.9023 517.348 18.2148C516.98 18.5273 516.539 18.7773 516.023 18.9648C515.516 19.1445 514.914 19.2344 514.219 19.2344ZM514.523 17.6172C515.898 17.6172 516.871 17.2266 517.441 16.4453C518.012 15.6641 518.297 14.5039 518.297 12.9648V12.6133C518.297 10.9805 518.023 9.72656 517.477 8.85156C516.938 7.97656 515.953 7.53906 514.523 7.53906C513.328 7.53906 512.434 8 511.84 8.92188C511.246 9.83594 510.949 11.0859 510.949 12.6719C510.949 14.25 511.242 15.4688 511.828 16.3281C512.422 17.1875 513.32 17.6172 514.523 17.6172ZM524.051 17.7812C524.051 17.2344 524.184 16.8477 524.449 16.6211C524.715 16.3867 525.039 16.2695 525.422 16.2695C525.82 16.2695 526.156 16.3867 526.43 16.6211C526.703 16.8477 526.84 17.2344 526.84 17.7812C526.84 18.3203 526.703 18.7148 526.43 18.9648C526.156 19.207 525.82 19.3281 525.422 19.3281C525.039 19.3281 524.715 19.207 524.449 18.9648C524.184 18.7148 524.051 18.3203 524.051 17.7812Z" fill="#3A3A3A"/>
</svg>
