<svg width="34" height="34" viewBox="0 0 34 34" fill="none" xmlns="http://www.w3.org/2000/svg">
<path d="M31.5835 14.9167H19.0835V2.41668C19.0835 1.86414 18.864 1.33424 18.4733 0.943538C18.0826 0.552837 17.5527 0.333344 17.0002 0.333344C16.4476 0.333344 15.9177 0.552837 15.527 0.943538C15.1363 1.33424 14.9168 1.86414 14.9168 2.41668V14.9167H2.41683C1.8643 14.9167 1.33439 15.1362 0.943691 15.5269C0.55299 15.9176 0.333496 16.4475 0.333496 17C0.333496 17.5525 0.55299 18.0824 0.943691 18.4732C1.33439 18.8639 1.8643 19.0833 2.41683 19.0833H14.9168V31.5833C14.9168 32.1359 15.1363 32.6658 15.527 33.0565C15.9177 33.4472 16.4476 33.6667 17.0002 33.6667C17.5527 33.6667 18.0826 33.4472 18.4733 33.0565C18.864 32.6658 19.0835 32.1359 19.0835 31.5833V19.0833H31.5835C32.136 19.0833 32.6659 18.8639 33.0566 18.4732C33.4473 18.0824 33.6668 17.5525 33.6668 17C33.6668 16.4475 33.4473 15.9176 33.0566 15.5269C32.6659 15.1362 32.136 14.9167 31.5835 14.9167Z" fill="black"/>
</svg>
