<svg width="41" height="45" viewBox="0 0 41 45" fill="none" xmlns="http://www.w3.org/2000/svg">
<path d="M29.3333 40.1667H11.6667C9.90961 40.1667 8.22451 39.4688 6.98208 38.2263C5.73966 36.9839 5.04167 35.2988 5.04167 33.5417V11.4584C5.04167 10.8727 4.809 10.311 4.39486 9.89689C3.98072 9.48274 3.41902 9.25008 2.83333 9.25008C2.24765 9.25008 1.68595 9.48274 1.27181 9.89689C0.857663 10.311 0.625 10.8727 0.625 11.4584V33.5417C0.625 36.4702 1.78832 39.2787 3.85903 41.3494C5.92974 43.4201 8.73823 44.5834 11.6667 44.5834H29.3333C29.919 44.5834 30.4807 44.3507 30.8949 43.9366C31.309 43.5225 31.5417 42.9608 31.5417 42.3751C31.5417 41.7894 31.309 41.2277 30.8949 40.8135C30.4807 40.3994 29.919 40.1667 29.3333 40.1667ZM16.0833 24.7084C16.0833 25.2941 16.316 25.8558 16.7301 26.2699C17.1443 26.6841 17.706 26.9167 18.2917 26.9167H29.3333C29.919 26.9167 30.4807 26.6841 30.8949 26.2699C31.309 25.8558 31.5417 25.2941 31.5417 24.7084C31.5417 24.1227 31.309 23.561 30.8949 23.1469C30.4807 22.7327 29.919 22.5001 29.3333 22.5001H18.2917C17.706 22.5001 17.1443 22.7327 16.7301 23.1469C16.316 23.561 16.0833 24.1227 16.0833 24.7084ZM40.375 15.7426C40.352 15.5397 40.3076 15.3398 40.2425 15.1463V14.9476C40.1363 14.7205 39.9947 14.5118 39.8229 14.3292L26.5729 1.07925C26.3904 0.907475 26.1816 0.765844 25.9546 0.659664C25.8887 0.650302 25.8218 0.650302 25.7558 0.659664C25.5315 0.53101 25.2837 0.448425 25.0271 0.416748H16.0833C14.3263 0.416748 12.6412 1.11474 11.3988 2.35717C10.1563 3.59959 9.45833 5.28469 9.45833 7.04175V29.1251C9.45833 30.8821 10.1563 32.5672 11.3988 33.8097C12.6412 35.0521 14.3263 35.7501 16.0833 35.7501H33.75C35.5071 35.7501 37.1922 35.0521 38.4346 33.8097C39.677 32.5672 40.375 30.8821 40.375 29.1251V15.8751C40.375 15.8751 40.375 15.8751 40.375 15.7426ZM27.125 7.94716L32.8446 13.6667H29.3333C28.7476 13.6667 28.1859 13.4341 27.7718 13.0199C27.3577 12.6058 27.125 12.0441 27.125 11.4584V7.94716ZM35.9583 29.1251C35.9583 29.7108 35.7257 30.2725 35.3115 30.6866C34.8974 31.1007 34.3357 31.3334 33.75 31.3334H16.0833C15.4976 31.3334 14.9359 31.1007 14.5218 30.6866C14.1077 30.2725 13.875 29.7108 13.875 29.1251V7.04175C13.875 6.45606 14.1077 5.89436 14.5218 5.48022C14.9359 5.06608 15.4976 4.83341 16.0833 4.83341H22.7083V11.4584C22.7143 12.2118 22.8487 12.9586 23.1058 13.6667H18.2917C17.706 13.6667 17.1443 13.8994 16.7301 14.3136C16.316 14.7277 16.0833 15.2894 16.0833 15.8751C16.0833 16.4608 16.316 17.0225 16.7301 17.4366C17.1443 17.8507 17.706 18.0834 18.2917 18.0834H35.9583V29.1251Z" fill="#FEFEFE"/>
</svg>
