<svg width="37" height="37" viewBox="0 0 37 37" fill="none" xmlns="http://www.w3.org/2000/svg">
<path d="M27.1669 12.9983C25.6748 12.9977 24.2058 13.3668 22.8911 14.0725C22.7712 13.7566 22.5579 13.4846 22.2797 13.2927C22.0015 13.1009 21.6715 12.9982 21.3335 12.9983H14.6669C14.448 12.9982 14.2312 13.0412 14.0289 13.1249C13.8266 13.2087 13.6429 13.3314 13.4881 13.4862C13.3333 13.641 13.2105 13.8248 13.1268 14.027C13.0431 14.2293 13.0001 14.4461 13.0002 14.665V34.665C13.0001 34.8839 13.0431 35.1007 13.1268 35.3029C13.2105 35.5052 13.3333 35.689 13.4881 35.8438C13.6429 35.9986 13.8266 36.1213 14.0289 36.205C14.2312 36.2888 14.448 36.3318 14.6669 36.3317H21.3335C21.5524 36.3318 21.7692 36.2888 21.9715 36.205C22.1738 36.1213 22.3575 35.9986 22.5123 35.8438C22.6671 35.689 22.7899 35.5052 22.8736 35.3029C22.9573 35.1007 23.0003 34.8839 23.0002 34.665V25.4983C23.0002 25.0563 23.1758 24.6324 23.4884 24.3198C23.8009 24.0073 24.2248 23.8317 24.6669 23.8317C25.1089 23.8317 25.5328 24.0073 25.8454 24.3198C26.1579 24.6324 26.3335 25.0563 26.3335 25.4983V34.665C26.3334 34.8839 26.3764 35.1007 26.4601 35.3029C26.5439 35.5052 26.6666 35.689 26.8214 35.8438C26.9762 35.9986 27.16 36.1213 27.3622 36.205C27.5645 36.2888 27.7813 36.3318 28.0002 36.3317H34.6669C34.8858 36.3318 35.1026 36.2888 35.3048 36.205C35.5071 36.1213 35.6909 35.9986 35.8457 35.8438C36.0005 35.689 36.1232 35.5052 36.2069 35.3029C36.2906 35.1007 36.3337 34.8839 36.3335 34.665V22.165C36.3305 19.7348 35.3638 17.4049 33.6453 15.6865C31.9269 13.9681 29.5971 13.0013 27.1669 12.9983ZM33.0002 32.9983H29.6669V25.4983C29.6669 24.1722 29.1401 22.9005 28.2024 21.9628C27.2647 21.0251 25.9929 20.4983 24.6669 20.4983C23.3408 20.4983 22.069 21.0251 21.1313 21.9628C20.1936 22.9005 19.6669 24.1722 19.6669 25.4983V32.9983H16.3335V16.3317H19.6669V17.5035C19.6671 17.8489 19.7745 18.1856 19.9743 18.4673C20.1741 18.749 20.4564 18.9616 20.7823 19.076C21.1081 19.1903 21.4614 19.2007 21.7934 19.1056C22.1254 19.0105 22.4197 18.8147 22.6356 18.5452C23.3836 17.5953 24.4095 16.9026 25.5702 16.5639C26.7308 16.2253 27.9683 16.2575 29.1097 16.6562C30.2512 17.0548 31.2397 17.8 31.9371 18.7876C32.6346 19.7752 33.0063 20.9559 33.0002 22.165V32.9983ZM9.66686 12.9983H3.0002C2.78129 12.9982 2.56451 13.0412 2.36224 13.1249C2.15998 13.2087 1.97619 13.3314 1.82141 13.4862C1.66662 13.641 1.54386 13.8248 1.46014 14.027C1.37643 14.2293 1.3334 14.4461 1.33353 14.665V34.665C1.3334 34.8839 1.37642 35.1007 1.46014 35.3029C1.54385 35.5052 1.66661 35.689 1.8214 35.8438C1.97619 35.9986 2.15997 36.1213 2.36224 36.205C2.56451 36.2888 2.78129 36.3318 3.0002 36.3317H9.66686C9.88577 36.3318 10.1026 36.2888 10.3048 36.205C10.5071 36.1213 10.6909 35.9986 10.8457 35.8438C11.0004 35.689 11.1232 35.5052 11.2069 35.3029C11.2906 35.1007 11.3337 34.8839 11.3335 34.665V14.665C11.3337 14.4461 11.2906 14.2293 11.2069 14.027C11.1232 13.8248 11.0004 13.641 10.8457 13.4862C10.6909 13.3314 10.5071 13.2087 10.3048 13.1249C10.1026 13.0412 9.88577 12.9982 9.66686 12.9983ZM8.0002 32.9983H4.66686V16.3317H8.0002V32.9983ZM6.35795 0.569991C5.62855 0.52633 4.89789 0.631487 4.21041 0.879066C3.52292 1.12664 2.89298 1.51147 2.35889 2.01015C1.8248 2.50882 1.39772 3.11092 1.10363 3.77982C0.809532 4.44873 0.654567 5.17047 0.648157 5.90114C0.641746 6.63182 0.784024 7.35616 1.06634 8.03013C1.34865 8.70409 1.7651 9.31359 2.29036 9.82156C2.81562 10.3295 3.43871 10.7253 4.12174 10.985C4.80478 11.2446 5.53348 11.3625 6.26353 11.3317H6.31073C7.04206 11.3751 7.77456 11.269 8.46349 11.0197C9.15241 10.7705 9.78329 10.3834 10.3176 9.88217C10.8518 9.3809 11.2783 8.77595 11.5709 8.10429C11.8635 7.43263 12.016 6.70837 12.0192 5.97576C12.0224 5.24315 11.8762 4.51758 11.5896 3.84338C11.3029 3.16918 10.8818 2.56051 10.3519 2.05457C9.82204 1.54862 9.19458 1.15603 8.50787 0.900778C7.82116 0.645524 7.08961 0.532969 6.35793 0.569991H6.35795ZM6.31075 7.99832H6.26353C5.97531 8.03332 5.68293 8.00629 5.40601 7.91904C5.1291 7.83179 4.87403 7.68633 4.65793 7.49243C4.44183 7.29853 4.26969 7.06066 4.15305 6.79478C4.03641 6.5289 3.97797 6.24116 3.98165 5.95084C3.98165 4.70734 4.91426 3.90331 6.35795 3.90331C6.64911 3.86449 6.94521 3.88852 7.22631 3.97378C7.5074 4.05904 7.76696 4.20354 7.9875 4.39756C8.20805 4.59158 8.38446 4.83061 8.50484 5.09854C8.62523 5.36648 8.6868 5.6571 8.68541 5.95084C8.68541 7.19432 7.7528 7.99832 6.31075 7.99832Z" fill="#024D60"/>
</svg>
