<svg width="31" height="45" viewBox="0 0 31 45" fill="none" xmlns="http://www.w3.org/2000/svg">
<path d="M17.0678 31.9738L16.7365 31.7088C16.6134 31.6253 16.4797 31.5584 16.339 31.5101L15.9415 31.3334C15.5834 31.2585 15.2122 31.2738 14.8615 31.3779C14.5107 31.482 14.1913 31.6716 13.9319 31.9297C13.7369 32.1443 13.58 32.3908 13.4682 32.6584C13.301 33.0608 13.2567 33.5036 13.3407 33.9311C13.4246 34.3586 13.6332 34.7518 13.9401 35.061C14.247 35.3703 14.6385 35.5818 15.0654 35.6691C15.4922 35.7563 15.9354 35.7154 16.339 35.5513C16.6029 35.4233 16.8481 35.2598 17.0678 35.0655C17.3742 34.755 17.5818 34.3606 17.6643 33.9322C17.7468 33.5038 17.7006 33.0606 17.5315 32.6584C17.4214 32.4031 17.2641 32.1708 17.0678 31.9738V31.9738ZM24.3332 0.416748H6.6665C4.90944 0.416748 3.22435 1.11474 1.98192 2.35717C0.739493 3.59959 0.0415039 5.28469 0.0415039 7.04175V37.9584C0.0415039 39.7155 0.739493 41.4006 1.98192 42.643C3.22435 43.8854 4.90944 44.5834 6.6665 44.5834H24.3332C26.0902 44.5834 27.7753 43.8854 29.0178 42.643C30.2602 41.4006 30.9582 39.7155 30.9582 37.9584V7.04175C30.9582 5.28469 30.2602 3.59959 29.0178 2.35717C27.7753 1.11474 26.0902 0.416748 24.3332 0.416748ZM26.5415 37.9584C26.5415 38.5441 26.3088 39.1058 25.8947 39.5199C25.4806 39.9341 24.9189 40.1667 24.3332 40.1667H6.6665C6.08082 40.1667 5.51912 39.9341 5.10498 39.5199C4.69083 39.1058 4.45817 38.5441 4.45817 37.9584V7.04175C4.45817 6.45606 4.69083 5.89436 5.10498 5.48022C5.51912 5.06608 6.08082 4.83341 6.6665 4.83341H24.3332C24.9189 4.83341 25.4806 5.06608 25.8947 5.48022C26.3088 5.89436 26.5415 6.45606 26.5415 7.04175V37.9584Z" fill="#FEFEFE"/>
</svg>
