<svg width="45" height="45" viewBox="0 0 45 45" fill="none" xmlns="http://www.w3.org/2000/svg">
<path d="M11.4406 28.0254C10.8549 28.0254 10.2932 28.258 9.87908 28.6722C9.46494 29.0863 9.23228 29.648 9.23228 30.2337V34.1689C6.38591 30.9501 4.81503 26.8014 4.81561 22.5045C4.81465 21.855 4.853 21.2061 4.93045 20.5612C4.97258 20.2699 4.95606 19.9731 4.88184 19.6883C4.80763 19.4034 4.67723 19.1363 4.4983 18.9026C4.31937 18.6689 4.09553 18.4733 3.83993 18.3274C3.58433 18.1814 3.30214 18.088 3.00993 18.0527C2.71772 18.0174 2.4214 18.0408 2.13838 18.1216C1.85536 18.2025 1.59136 18.3391 1.36189 18.5234C1.13241 18.7077 0.942107 18.9361 0.80215 19.195C0.662194 19.4539 0.575412 19.7382 0.546905 20.0312C0.447164 20.8518 0.397752 21.6778 0.398947 22.5045C0.401961 27.774 2.29593 32.8674 5.73649 36.8587H2.60728C2.02159 36.8587 1.4599 37.0914 1.04575 37.5055C0.63161 37.9196 0.398947 38.4813 0.398947 39.067C0.398947 39.6527 0.63161 40.2144 1.04575 40.6285C1.4599 41.0427 2.02159 41.2754 2.60728 41.2754H11.4406C11.786 41.2709 12.1253 41.184 12.4303 41.0219C12.7352 40.8598 12.9971 40.6272 13.194 40.3434C13.2183 40.3103 13.2514 40.2838 13.2757 40.2485C13.2912 40.2264 13.2912 40.1999 13.3044 40.1778C13.4096 40.0002 13.4885 39.8083 13.5385 39.6081C13.5717 39.4954 13.5953 39.3802 13.6092 39.2636C13.6158 39.1973 13.6489 39.1377 13.6489 39.067V30.2337C13.6489 29.648 13.4163 29.0863 13.0021 28.6722C12.588 28.258 12.0263 28.0254 11.4406 28.0254ZM14.7531 9.25452H10.8157C14.0353 6.408 18.1847 4.83713 22.4823 4.83785C23.1319 4.83643 23.7809 4.87552 24.4256 4.95489C25.0075 5.02517 25.5935 4.86143 26.0546 4.49967C26.5158 4.13792 26.8143 3.60779 26.8846 3.02591C26.9549 2.44403 26.7911 1.85807 26.4294 1.39692C26.0676 0.935769 25.5375 0.637215 24.9556 0.566932C24.1349 0.468224 23.3089 0.419551 22.4823 0.421182C17.2128 0.424196 12.1194 2.31817 8.12811 5.75872V2.62952C8.12811 2.04383 7.89545 1.48213 7.48131 1.06799C7.06716 0.653845 6.50547 0.421182 5.91978 0.421182C5.33409 0.421182 4.7724 0.653845 4.35825 1.06799C3.94411 1.48213 3.71145 2.04383 3.71145 2.62952V11.4628C3.72508 11.609 3.75394 11.7533 3.79757 11.8935C3.85081 12.166 3.95657 12.4255 4.10895 12.6576L4.13545 12.6951C4.28111 12.907 4.46361 13.091 4.67428 13.2383C4.69857 13.256 4.71182 13.2825 4.73611 13.3002C4.76703 13.3223 4.80236 13.3289 4.83549 13.3466C4.9612 13.422 5.09442 13.4842 5.23299 13.5321C5.41895 13.5969 5.61284 13.6363 5.80936 13.6491C5.84911 13.6491 5.88003 13.6712 5.91978 13.6712H14.7531C15.3388 13.6712 15.9005 13.4385 16.3146 13.0244C16.7288 12.6102 16.9614 12.0485 16.9614 11.4628C16.9614 10.8772 16.7288 10.3155 16.3146 9.90132C15.9005 9.48718 15.3388 9.25452 14.7531 9.25452ZM41.1648 33.1133C41.1114 32.8416 41.0056 32.5828 40.8534 32.3515L40.8291 32.3139C40.6828 32.1019 40.4995 31.9179 40.2881 31.7707C40.2638 31.753 40.2527 31.7265 40.2262 31.7089C40.2042 31.6934 40.1754 31.6934 40.1512 31.6779C39.8709 31.5217 39.5638 31.4198 39.2457 31.3776C39.1751 31.371 39.1154 31.3379 39.0448 31.3379H30.2114C29.6258 31.3379 29.0641 31.5705 28.6499 31.9847C28.2358 32.3988 28.0031 32.9605 28.0031 33.5462C28.0031 34.1319 28.2358 34.6936 28.6499 35.1077C29.0641 35.5219 29.6258 35.7545 30.2114 35.7545H34.1467C30.9277 38.6007 26.7791 40.1716 22.4823 40.1712C21.8327 40.1719 21.1836 40.1321 20.5389 40.0519C19.9571 39.9817 19.3711 40.1454 18.91 40.5072C18.4488 40.8689 18.1502 41.399 18.08 41.9809C18.0097 42.5628 18.1734 43.1488 18.5352 43.6099C18.8969 44.0711 19.4271 44.3696 20.0089 44.4399C20.8297 44.5386 21.6556 44.588 22.4823 44.5879C27.7518 44.5848 32.8452 42.6909 36.8364 39.2503V42.3795C36.8364 42.9652 37.0691 43.5269 37.4832 43.941C37.8974 44.3552 38.4591 44.5879 39.0448 44.5879C39.6305 44.5879 40.1922 44.3552 40.6063 43.941C41.0204 43.5269 41.2531 42.9652 41.2531 42.3795V33.5462C41.2388 33.4 41.2092 33.2534 41.1648 33.1133ZM42.3573 8.15035C42.943 8.15035 43.5047 7.91769 43.9188 7.50354C44.3329 7.0894 44.5656 6.5277 44.5656 5.94202C44.5656 5.35633 44.3329 4.79463 43.9188 4.38049C43.5047 3.96635 42.943 3.73368 42.3573 3.73368H33.5239C33.38 3.74773 33.2379 3.77659 33.0999 3.81981L33.0845 3.82202C32.8168 3.87615 32.5619 3.9811 32.3337 4.13118L32.2895 4.15989C32.0784 4.3058 31.8952 4.48828 31.7484 4.69872C31.7308 4.72081 31.7043 4.73406 31.6866 4.75835C31.6712 4.78043 31.6712 4.80914 31.6557 4.83343C31.4983 5.11549 31.3964 5.42508 31.3554 5.74547C31.3487 5.81172 31.3156 5.87135 31.3156 5.94202V14.7753C31.3156 15.361 31.5483 15.9227 31.9624 16.3369C32.3766 16.751 32.9383 16.9837 33.5239 16.9837C34.1096 16.9837 34.6713 16.751 35.0855 16.3369C35.4996 15.9227 35.7323 15.361 35.7323 14.7753V10.8379C38.5786 14.0576 40.1495 18.207 40.1489 22.5045C40.1492 23.1541 40.1101 23.803 40.0319 24.4479C39.9621 25.029 40.1256 25.6142 40.4866 26.0749C40.8476 26.5357 41.3766 26.8345 41.9576 26.9057C42.047 26.9162 42.137 26.9214 42.227 26.9212C42.7661 26.9202 43.2863 26.7221 43.6894 26.3641C44.0925 26.0061 44.3507 25.5131 44.4154 24.9778C44.5159 24.1572 44.5661 23.3313 44.5656 22.5045C44.5626 17.235 42.6686 12.1416 39.2281 8.15035H42.3573Z" fill="#FEFEFE"/>
</svg>
