<svg width="38" height="32" viewBox="0 0 38 32" fill="none" xmlns="http://www.w3.org/2000/svg">
<path d="M37.3189 2.58366C37.3191 2.28927 37.2412 2.00009 37.0933 1.74556C36.9454 1.49104 36.7326 1.28027 36.4768 1.13471C36.2209 0.989149 35.931 0.914006 35.6366 0.91693C35.3422 0.919855 35.0539 1.00074 34.801 1.15136C33.8254 1.732 32.7752 2.17666 31.6793 2.47302C30.1143 1.13008 28.1182 0.395195 26.056 0.402706C23.7936 0.40531 21.6208 1.28703 19.9963 2.86167C18.3719 4.43632 17.4229 6.58064 17.3499 8.84184C12.8899 8.13061 8.84763 5.80272 5.99399 2.30207C5.82205 2.09346 5.60247 1.92926 5.35376 1.82332C5.10505 1.71737 4.83451 1.67278 4.56496 1.69332C4.29556 1.71551 4.03562 1.80298 3.80761 1.94817C3.57961 2.09337 3.3904 2.29192 3.25636 2.52666C2.5689 3.72634 2.17408 5.07125 2.10394 6.45217C2.03381 7.83308 2.29034 9.21107 2.85271 10.4742L2.84946 10.4775C2.5967 10.6332 2.38811 10.8511 2.24363 11.1104C2.09916 11.3697 2.02362 11.6618 2.02426 11.9586C2.0212 12.2035 2.03589 12.4483 2.06821 12.691C2.23844 14.7881 3.16785 16.7511 4.68214 18.2119C4.57941 18.4076 4.51672 18.6218 4.49771 18.842C4.47871 19.0622 4.50378 19.284 4.57146 19.4944C5.23165 21.5513 6.63562 23.2879 8.50864 24.3642C6.60571 25.1001 4.55101 25.3566 2.52556 25.1113C2.15068 25.0642 1.77094 25.146 1.44864 25.3432C1.12634 25.5403 0.880604 25.8411 0.751751 26.1963C0.622898 26.5515 0.618576 26.9399 0.739494 27.2978C0.860412 27.6558 1.09939 27.962 1.41723 28.1663C4.90072 30.4099 8.95669 31.6027 13.1002 31.6022C17.7989 31.6551 22.3835 30.1536 26.1406 27.3313C29.8977 24.509 32.6168 20.5242 33.8748 15.9967C34.4633 14.0244 34.7637 11.9774 34.7668 9.91926C34.7668 9.81021 34.7668 9.69791 34.7652 9.58561C35.6354 8.64716 36.3095 7.54444 36.748 6.3421C37.1865 5.13976 37.3806 3.86198 37.3189 2.58366ZM31.8078 7.93684C31.5325 8.26241 31.3932 8.6815 31.4188 9.10709C31.4351 9.38209 31.4334 9.65876 31.4334 9.91926C31.43 11.6585 31.1751 13.3881 30.6766 15.0544C29.6491 18.9067 27.3585 22.3027 24.1718 24.6987C20.985 27.0946 17.0863 28.3518 13.1002 28.2689C11.6683 28.2693 10.2414 28.1011 8.84888 27.7676C10.6246 27.1953 12.2849 26.3131 13.7528 25.1618C14.0232 24.9489 14.2211 24.6576 14.3193 24.3277C14.4175 23.9979 14.4113 23.6458 14.3015 23.3197C14.1916 22.9936 13.9836 22.7094 13.7058 22.5062C13.4281 22.3031 13.0943 22.1908 12.7502 22.1849C11.3649 22.1633 10.0421 21.6049 9.06039 20.6273C9.30943 20.5801 9.55683 20.5215 9.80259 20.4515C10.1626 20.349 10.4777 20.1284 10.697 19.8251C10.9164 19.5217 11.0273 19.1534 11.0119 18.7794C10.9965 18.4054 10.8556 18.0475 10.6121 17.7633C10.3685 17.4791 10.0364 17.2851 9.66913 17.2126C8.86502 17.0538 8.10837 16.7117 7.45798 16.2129C6.8076 15.7141 6.281 15.072 5.91913 14.3366C6.22034 14.3777 6.52348 14.4032 6.82733 14.4131C7.1883 14.4185 7.54165 14.309 7.83629 14.1004C8.13092 13.8918 8.35157 13.5949 8.46633 13.2526C8.57629 12.9072 8.57063 12.5354 8.45021 12.1935C8.32978 11.8516 8.10116 11.5583 7.79901 11.3581C7.06592 10.8697 6.46541 10.2071 6.05127 9.42965C5.63712 8.65221 5.42227 7.78418 5.42596 6.90332C5.42596 6.79266 5.42921 6.68197 5.43573 6.57292C9.17116 10.0567 14.0163 12.1103 19.1174 12.3721C19.3749 12.3822 19.6313 12.3337 19.8673 12.2302C20.1033 12.1268 20.3127 11.971 20.4797 11.7747C20.645 11.5766 20.7621 11.3428 20.8216 11.0917C20.8812 10.8406 20.8817 10.5791 20.823 10.3278C20.7277 9.93008 20.6791 9.52259 20.6782 9.11361C20.6797 7.68783 21.2468 6.32089 22.2549 5.31272C23.2631 4.30454 24.6301 3.73749 26.0558 3.73599C26.7894 3.73402 27.5154 3.88415 28.188 4.1769C28.8606 4.46965 29.4652 4.89865 29.9637 5.43684C30.1559 5.64364 30.3979 5.79783 30.6665 5.88473C30.9352 5.97163 31.2216 5.98836 31.4985 5.93332C32.1831 5.80008 32.858 5.62064 33.5184 5.39622C33.0679 6.31784 32.4923 7.1728 31.8078 7.93684Z" fill="#024D60"/>
</svg>
